<?xml version="1.0" encoding="UTF-8" standalone="no"?>
<svg
   xmlns:osb="http://www.openswatchbook.org/uri/2009/osb"
   xmlns:dc="http://purl.org/dc/elements/1.1/"
   xmlns:cc="http://creativecommons.org/ns#"
   xmlns:rdf="http://www.w3.org/1999/02/22-rdf-syntax-ns#"
   xmlns:svg="http://www.w3.org/2000/svg"
   xmlns="http://www.w3.org/2000/svg"
   xmlns:sodipodi="http://sodipodi.sourceforge.net/DTD/sodipodi-0.dtd"
   xmlns:inkscape="http://www.inkscape.org/namespaces/inkscape"
   width="105.83334mm"
   height="178.40475mm"
   viewBox="0 0 105.83334 178.40475"
   version="1.1"
   id="svg861"
   inkscape:version="1.0.2 (e86c870879, 2021-01-15)"
   sodipodi:docname="IC4011.svg"
   inkscape:export-filename="/home/k2/Desktop/svg_img/ic_svg/4011.png"
   inkscape:export-xdpi="96"
   inkscape:export-ydpi="96">
  <defs
     id="defs855">
    <marker
       style="overflow:visible"
       id="marker1280"
       refX="0"
       refY="0"
       orient="auto"
       inkscape:stockid="Arrow1Lstart"
       inkscape:isstock="true">
      <path
         transform="matrix(0.8,0,0,0.8,10,0)"
         style="fill:#ffffff;fill-opacity:1;fill-rule:evenodd;stroke:#000000;stroke-width:1pt;stroke-opacity:0.931801"
         d="M 0,0 5,-5 -12.5,0 5,5 Z"
         id="path1278" />
    </marker>
    <marker
       style="overflow:visible"
       id="marker1258"
       refX="0"
       refY="0"
       orient="auto"
       inkscape:stockid="Arrow1Lstart"
       inkscape:isstock="true">
      <path
         transform="matrix(0.8,0,0,0.8,10,0)"
         style="fill:#ffffff;fill-opacity:1;fill-rule:evenodd;stroke:#000000;stroke-width:1pt;stroke-opacity:0.931801"
         d="M 0,0 5,-5 -12.5,0 5,5 Z"
         id="path1256" />
    </marker>
    <marker
       style="overflow:visible"
       id="Arrow1Lstart"
       refX="0"
       refY="0"
       orient="auto"
       inkscape:stockid="Arrow1Lstart"
       inkscape:isstock="true">
      <path
         transform="matrix(0.8,0,0,0.8,10,0)"
         style="fill:#ffffff;fill-opacity:1;fill-rule:evenodd;stroke:#000000;stroke-width:1pt;stroke-opacity:0.931801"
         d="M 0,0 5,-5 -12.5,0 5,5 Z"
         id="path980" />
    </marker>
    <linearGradient
       id="linearGradient3505"
       osb:paint="gradient">
      <stop
         style="stop-color:#4d4d4d;stop-opacity:1;"
         offset="0"
         id="stop3501" />
      <stop
         style="stop-color:#4d4d4d;stop-opacity:0;"
         offset="1"
         id="stop3503" />
    </linearGradient>
    <linearGradient
       id="linearGradient3481"
       osb:paint="solid">
      <stop
         style="stop-color:#4d4d4d;stop-opacity:1;"
         offset="0"
         id="stop3479" />
    </linearGradient>
    <linearGradient
       id="linearGradient3464"
       osb:paint="solid">
      <stop
         style="stop-color:#fcfff6;stop-opacity:0.21176472;"
         offset="0"
         id="stop3462" />
    </linearGradient>
    <linearGradient
       id="linearGradient1458"
       osb:paint="solid">
      <stop
         style="stop-color:#001919;stop-opacity:0.46894056;"
         offset="0"
         id="stop1456" />
    </linearGradient>
    <linearGradient
       id="linearGradient1444"
       osb:paint="solid">
      <stop
         style="stop-color:#171816;stop-opacity:1;"
         offset="0"
         id="stop1442" />
    </linearGradient>
    <linearGradient
       id="linearGradient1438"
       osb:paint="solid">
      <stop
         style="stop-color:#010101;stop-opacity:0.36078432;"
         offset="0"
         id="stop1436" />
    </linearGradient>
    <filter
       inkscape:collect="always"
       style="color-interpolation-filters:sRGB"
       id="filter2329"
       x="-0.096052341"
       width="1.1921047"
       y="-0.05994644"
       height="1.119893">
      <feGaussianBlur
         inkscape:collect="always"
         stdDeviation="9.9869265"
         id="feGaussianBlur2331" />
    </filter>
    <filter
       inkscape:collect="always"
       style="color-interpolation-filters:sRGB"
       id="filter5011"
       x="-0.064844802"
       width="1.1296896"
       y="-0.060697563"
       height="1.1213951">
      <feGaussianBlur
         inkscape:collect="always"
         stdDeviation="0.70849442"
         id="feGaussianBlur5013" />
    </filter>
    <filter
       inkscape:collect="always"
       style="color-interpolation-filters:sRGB"
       id="filter5267"
       x="-0.065199569"
       width="1.1303991"
       y="-0.060811628"
       height="1.1216233">
      <feGaussianBlur
         inkscape:collect="always"
         stdDeviation="0.72022604"
         id="feGaussianBlur5269" />
    </filter>
    <filter
       inkscape:collect="always"
       style="color-interpolation-filters:sRGB"
       id="filter5285"
       x="-0.065199569"
       width="1.1303991"
       y="-0.060811628"
       height="1.1216233">
      <feGaussianBlur
         inkscape:collect="always"
         stdDeviation="0.72022604"
         id="feGaussianBlur5287" />
    </filter>
    <filter
       inkscape:collect="always"
       style="color-interpolation-filters:sRGB"
       id="filter5303"
       x="-0.065199569"
       width="1.1303991"
       y="-0.060811628"
       height="1.1216233">
      <feGaussianBlur
         inkscape:collect="always"
         stdDeviation="0.72022604"
         id="feGaussianBlur5305" />
    </filter>
    <filter
       inkscape:collect="always"
       style="color-interpolation-filters:sRGB"
       id="filter4405"
       x="-0.091147304"
       width="1.1822946"
       y="-0.032590866"
       height="1.0651817">
      <feGaussianBlur
         inkscape:collect="always"
         stdDeviation="2.03081"
         id="feGaussianBlur4407" />
    </filter>
  </defs>
  <sodipodi:namedview
     id="base"
     pagecolor="#ffffff"
     bordercolor="#666666"
     borderopacity="1.0"
     inkscape:pageopacity="0.0"
     inkscape:pageshadow="2"
     inkscape:zoom="1.4805976"
     inkscape:cx="65.047347"
     inkscape:cy="185.92003"
     inkscape:document-units="mm"
     inkscape:current-layer="layer1"
     inkscape:document-rotation="0"
     showgrid="false"
     inkscape:snap-global="true"
     inkscape:lockguides="true"
     inkscape:window-width="1920"
     inkscape:window-height="1043"
     inkscape:window-x="0"
     inkscape:window-y="0"
     inkscape:window-maximized="1"
     inkscape:object-nodes="false"
     inkscape:snap-bbox="true"
     inkscape:bbox-nodes="true"
     inkscape:snap-bbox-midpoints="true"
     inkscape:bbox-paths="true"
     inkscape:snap-object-midpoints="true"
     inkscape:snap-center="true"
     inkscape:snap-bbox-edge-midpoints="true" />
  <metadata
     id="metadata858">
    <rdf:RDF>
      <cc:Work
         rdf:about="">
        <dc:format>image/svg+xml</dc:format>
        <dc:type
           rdf:resource="http://purl.org/dc/dcmitype/StillImage" />
        <dc:title />
      </cc:Work>
    </rdf:RDF>
  </metadata>
  <g
     inkscape:label="Layer 1"
     inkscape:groupmode="layer"
     id="layer1"
     transform="translate(-9.6859296,-0.71680599)">
    <path
       id="path3744"
       style="fill:#ffffff;fill-opacity:1;fill-rule:evenodd;stroke:#000000;stroke-width:0.151;stroke-miterlimit:4;stroke-dasharray:none;stroke-opacity:0.931801"
       d="m 55.490897,-19.275199 v 8.823192 h 4.518197 v -6.67e-4 a 4.5530596,4.41114 0 0 0 0.03533,2.3e-4 4.5530596,4.41114 0 0 0 4.553055,-4.411137 4.5530596,4.41114 0 0 0 -4.553055,-4.411137 4.5530596,4.41114 0 0 0 -0.03533,2.31e-4 v -7.11e-4 z" />
    <path
       id="path3788"
       style="fill:#ffffff;stroke:#000000;stroke-width:0.150554px;stroke-linecap:butt;stroke-linejoin:miter;stroke-opacity:1"
       d="m 72.121656,-19.777899 c 4.009025,4.617235 0.07862,9.524152 0.05848,9.550184 10.609898,-2.680274 13.801166,-5.830883 -0.05848,-9.550184 z" />
    <path
       id="path3792"
       style="fill:#ffffff;stroke:#000000;stroke-width:0.138234px;stroke-linecap:butt;stroke-linejoin:miter;stroke-opacity:1"
       d="m 91.142141,-19.830545 c 3.564699,4.377671 0.0701,9.030065 0.05219,9.054745 9.433989,-2.541209 12.271369,-5.528424 -0.05219,-9.054745 z m 8.782927,4.080372 a 0.44203921,0.44203918 0 0 0 -0.438216,0.442349 0.44203921,0.44203918 0 0 0 0.44235,0.441836 0.44203921,0.44203918 0 0 0 0.441838,-0.441836 0.44203921,0.44203918 0 0 0 -0.441838,-0.442349 0.44203921,0.44203918 0 0 0 -0.0041,0 z" />
    <path
       id="path3798"
       style="fill:#ffffff;fill-opacity:1;fill-rule:evenodd;stroke:#000000;stroke-width:0.298343;stroke-miterlimit:4;stroke-dasharray:none;stroke-opacity:0.931801"
       d="m 33.286854,-19.352078 0.261782,8.843101 5.193763,-0.107206 -2.5e-5,-5.26e-4 a 5.235616,4.4226483 0.09640193 0 0 0.04106,-3.21e-4 5.235616,4.4226483 0.09640193 0 0 5.102668,-4.529317 5.235616,4.4226483 0.09640193 0 0 -5.36446,-4.313781 5.235616,4.4226483 0.09640193 0 0 -0.04083,0.0013 l -1.3e-5,-5.15e-4 z m 11.299291,3.719642 a 0.54056111,0.47128998 0.44479704 0 0 -0.526648,0.481984 0.54056111,0.47128998 0.44479704 0 0 0.554595,0.460126 0.54056111,0.47128998 0.44479704 0 0 0.526622,-0.4825 0.54056111,0.47128998 0.44479704 0 0 -0.554431,-0.459723 z" />
    <path
       id="path3807"
       style="fill:none;stroke:#000000;stroke-width:0.151;stroke-linecap:butt;stroke-linejoin:miter;stroke-miterlimit:4;stroke-dasharray:none;stroke-opacity:1"
       d="m 10.494031,-19.452871 c 3.095011,3.13915 2.82588,6.30425 0.09293,9.4883603 m 1.637048,-9.3531003 c 4.009025,4.61724 0.07862,9.5241603 0.05848,9.5501903 10.609898,-2.6802803 13.801166,-5.8308903 -0.05848,-9.5501903 z" />
    <rect
       style="font-variation-settings:normal;vector-effect:none;fill:#999999;fill-opacity:1;fill-rule:evenodd;stroke-width:0.172901;stroke-linecap:butt;stroke-linejoin:miter;stroke-miterlimit:4;stroke-dasharray:none;stroke-dashoffset:0;stroke-opacity:1;stop-color:#000000"
       id="rect3470"
       width="2.7234919"
       height="3.2998083"
       x="94.070312"
       y="92.854256" />
    <rect
       style="font-variation-settings:normal;vector-effect:none;fill:#999999;fill-opacity:1;fill-rule:evenodd;stroke-width:0.145671;stroke-linecap:butt;stroke-linejoin:miter;stroke-miterlimit:4;stroke-dasharray:none;stroke-dashoffset:0;stroke-opacity:1;stop-color:#000000"
       id="rect3472"
       width="2.7235491"
       height="4.7918305"
       x="94.070259"
       y="99.611908" />
    <rect
       style="font-variation-settings:normal;vector-effect:none;fill:#999999;fill-opacity:1;fill-rule:evenodd;stroke-width:0.184459;stroke-linecap:butt;stroke-linejoin:miter;stroke-miterlimit:4;stroke-dasharray:none;stroke-dashoffset:0;stroke-opacity:1;stop-color:#000000"
       id="rect3474"
       width="2.7234919"
       height="4.7919817"
       x="94.070312"
       y="107.86027" />
    <rect
       style="font-variation-settings:normal;vector-effect:none;fill:#999999;fill-opacity:1;fill-rule:evenodd;stroke-width:0.158966;stroke-linecap:butt;stroke-linejoin:miter;stroke-miterlimit:4;stroke-dasharray:none;stroke-dashoffset:0;stroke-opacity:1;stop-color:#000000"
       id="rect3513"
       width="2.7234919"
       height="4.7919817"
       x="94.070312"
       y="116.10939" />
    <rect
       style="font-variation-settings:normal;vector-effect:none;fill:#999999;fill-opacity:1;fill-rule:evenodd;stroke-width:0.162317;stroke-linecap:butt;stroke-linejoin:miter;stroke-miterlimit:4;stroke-dasharray:none;stroke-dashoffset:0;stroke-opacity:1;stop-color:#000000"
       id="rect3515"
       width="2.7234919"
       height="4.7919817"
       x="94.070312"
       y="124.35851" />
    <rect
       style="font-variation-settings:normal;vector-effect:none;fill:#999999;fill-opacity:1;fill-rule:evenodd;stroke-width:0.10318;stroke-linecap:butt;stroke-linejoin:miter;stroke-miterlimit:4;stroke-dasharray:none;stroke-dashoffset:0;stroke-opacity:1;stop-color:#000000"
       id="rect3519"
       width="2.7234919"
       height="4.7919817"
       x="94.070312"
       y="132.60764" />
    <rect
       style="font-variation-settings:normal;vector-effect:none;fill:#999999;fill-opacity:1;fill-rule:evenodd;stroke-width:0.132234;stroke-linecap:butt;stroke-linejoin:miter;stroke-miterlimit:4;stroke-dasharray:none;stroke-dashoffset:0;stroke-opacity:1;stop-color:#000000"
       id="rect3526"
       width="2.7234919"
       height="3.2999856"
       x="94.070312"
       y="140.85675" />
    <rect
       style="font-variation-settings:normal;vector-effect:none;fill:#999999;fill-opacity:1;fill-rule:evenodd;stroke-width:0.172901;stroke-linecap:butt;stroke-linejoin:miter;stroke-miterlimit:4;stroke-dasharray:none;stroke-dashoffset:0;stroke-opacity:1;stop-color:#000000"
       id="rect3528"
       width="2.7234919"
       height="3.2998083"
       x="50.783672"
       y="92.854256" />
    <rect
       style="font-variation-settings:normal;vector-effect:none;fill:#999999;fill-opacity:1;fill-rule:evenodd;stroke-width:0.145671;stroke-linecap:butt;stroke-linejoin:miter;stroke-miterlimit:4;stroke-dasharray:none;stroke-dashoffset:0;stroke-opacity:1;stop-color:#000000"
       id="rect3530"
       width="2.7235491"
       height="4.7918305"
       x="50.783672"
       y="124.35841" />
    <rect
       style="font-variation-settings:normal;vector-effect:none;fill:#999999;fill-opacity:1;fill-rule:evenodd;stroke-width:0.145671;stroke-linecap:butt;stroke-linejoin:miter;stroke-miterlimit:4;stroke-dasharray:none;stroke-dashoffset:0;stroke-opacity:1;stop-color:#000000"
       id="rect3532"
       width="2.7235491"
       height="4.7918305"
       x="50.783672"
       y="116.10936"
       inkscape:transform-center-x="-5.5637324"
       inkscape:transform-center-y="3.3567833" />
    <rect
       style="font-variation-settings:normal;vector-effect:none;fill:#999999;fill-opacity:1;fill-rule:evenodd;stroke-width:0.145671;stroke-linecap:butt;stroke-linejoin:miter;stroke-miterlimit:4;stroke-dasharray:none;stroke-dashoffset:0;stroke-opacity:1;stop-color:#000000"
       id="rect3534"
       width="2.7235491"
       height="4.7918305"
       x="50.783672"
       y="107.86032" />
    <rect
       style="font-variation-settings:normal;vector-effect:none;fill:#999999;fill-opacity:1;fill-rule:evenodd;stroke-width:0.145671;stroke-linecap:butt;stroke-linejoin:miter;stroke-miterlimit:4;stroke-dasharray:none;stroke-dashoffset:0;stroke-opacity:1;stop-color:#000000"
       id="rect3536"
       width="2.7235491"
       height="4.7918305"
       x="50.783672"
       y="99.61171" />
    <rect
       style="font-variation-settings:normal;vector-effect:none;fill:#999999;fill-opacity:1;fill-rule:evenodd;stroke-width:0.145671;stroke-linecap:butt;stroke-linejoin:miter;stroke-miterlimit:4;stroke-dasharray:none;stroke-dashoffset:0;stroke-opacity:1;stop-color:#000000"
       id="rect3538"
       width="2.7235491"
       height="4.7918305"
       x="50.783672"
       y="132.60745" />
    <rect
       style="font-variation-settings:normal;vector-effect:none;fill:#999999;fill-opacity:1;fill-rule:evenodd;stroke-width:0.120886;stroke-linecap:butt;stroke-linejoin:miter;stroke-miterlimit:4;stroke-dasharray:none;stroke-dashoffset:0;stroke-opacity:1;stop-color:#000000"
       id="rect3540"
       width="2.7235491"
       height="3.2999856"
       x="50.783672"
       y="140.85649" />
    <g
       id="g1451">
      <g
         id="g1416">
        <g
           id="g1387">
          <path
             id="rect983"
             style="font-variation-settings:normal;vector-effect:none;fill:#0052af;fill-opacity:1;fill-rule:evenodd;stroke-width:0.151245;stroke-linecap:butt;stroke-linejoin:miter;stroke-miterlimit:4;stroke-dasharray:none;stroke-dashoffset:0;stroke-opacity:1;stop-color:#000000"
             d="M 17.666776,0.71680781 V 57.872579 c 0,4.667723 3.89194,8.425561 8.726235,8.425561 h 6.825384 v -4.212925 h -6.825384 c -2.417148,0 -4.362968,-1.878774 -4.362968,-4.212636 V 0.71680781 Z" />
          <rect
             style="font-variation-settings:normal;vector-effect:none;fill:#72b3c7;fill-opacity:1;fill-rule:evenodd;stroke:none;stroke-width:0.16543;stroke-linecap:butt;stroke-linejoin:miter;stroke-miterlimit:4;stroke-dasharray:none;stroke-dashoffset:0;stroke-opacity:1;stop-color:#000000"
             id="rect998"
             width="20.044868"
             height="28.072517"
             x="9.6859293"
             y="0.71680593"
             rx="8.7261639"
             ry="10.080059" />
        </g>
        <g
           id="g1356">
          <rect
             style="font-variation-settings:normal;vector-effect:none;fill:#1eadc9;fill-opacity:1;fill-rule:evenodd;stroke-width:0.163923;stroke-linecap:butt;stroke-linejoin:miter;stroke-miterlimit:4;stroke-dasharray:none;stroke-dashoffset:0;stroke-opacity:1;stop-color:#000000"
             id="rect1229"
             width="82.300865"
             height="131.37534"
             x="33.218395"
             y="47.746227"
             rx="5.8480301"
             ry="6.5636697" />
          <g
             id="g13459"
             transform="matrix(0.58174437,0,0,0.5616997,15.427033,35.232113)">
            <rect
               style="font-variation-settings:normal;opacity:0.618167;vector-effect:none;fill:#008383;fill-opacity:1;fill-rule:evenodd;stroke-width:0.315244;stroke-linecap:butt;stroke-linejoin:miter;stroke-miterlimit:4;stroke-dasharray:none;stroke-dashoffset:0;stroke-opacity:1;filter:url(#filter4405);stop-color:#000000"
               id="rect9731"
               width="53.473263"
               height="149.54938"
               x="36.808178"
               y="69.777313" />
            <g
               id="g13447">
              <rect
                 style="font-variation-settings:normal;mix-blend-mode:normal;vector-effect:none;fill:#4d4d4d;fill-opacity:1;fill-rule:evenodd;stroke-width:1.00433;stroke-linecap:butt;stroke-linejoin:miter;stroke-miterlimit:4;stroke-dasharray:none;stroke-dashoffset:0;stroke-opacity:1;stop-color:#000000"
                 id="rect9733"
                 width="33.633736"
                 height="10"
                 x="46.565479"
                 y="113.75728"
                 inkscape:transform-center-x="-0.012129028"
                 inkscape:transform-center-y="0.70925526" />
              <rect
                 style="font-variation-settings:normal;mix-blend-mode:normal;vector-effect:none;fill:#4d4d4d;fill-opacity:1;fill-rule:evenodd;stroke-width:1.00433;stroke-linecap:butt;stroke-linejoin:miter;stroke-miterlimit:4;stroke-dasharray:none;stroke-dashoffset:0;stroke-opacity:1;stop-color:#000000"
                 id="rect9735"
                 width="33.633736"
                 height="10"
                 x="46.727943"
                 y="128.47084" />
              <rect
                 style="font-variation-settings:normal;mix-blend-mode:normal;vector-effect:none;fill:#4d4d4d;fill-opacity:1;fill-rule:evenodd;stroke-width:1.00465;stroke-linecap:butt;stroke-linejoin:miter;stroke-miterlimit:4;stroke-dasharray:none;stroke-dashoffset:0;stroke-opacity:1;stop-color:#000000"
                 id="rect9737"
                 width="33.633736"
                 height="10.00629"
                 x="46.727943"
                 y="142.94168" />
              <rect
                 style="font-variation-settings:normal;mix-blend-mode:normal;vector-effect:none;fill:#4d4d4d;fill-opacity:1;fill-rule:evenodd;stroke-width:1.00433;stroke-linecap:butt;stroke-linejoin:miter;stroke-miterlimit:4;stroke-dasharray:none;stroke-dashoffset:0;stroke-opacity:1;stop-color:#000000"
                 id="rect9739"
                 width="33.633736"
                 height="10"
                 x="46.727943"
                 y="157.41252" />
              <rect
                 style="font-variation-settings:normal;mix-blend-mode:normal;vector-effect:none;fill:#4d4d4d;fill-opacity:1;fill-rule:evenodd;stroke-width:1.00433;stroke-linecap:butt;stroke-linejoin:miter;stroke-miterlimit:4;stroke-dasharray:none;stroke-dashoffset:0;stroke-opacity:1;stop-color:#000000"
                 id="rect9741"
                 width="33.633736"
                 height="10"
                 x="46.727943"
                 y="171.82552" />
              <rect
                 style="font-variation-settings:normal;mix-blend-mode:normal;vector-effect:none;fill:#4d4d4d;fill-opacity:1;fill-rule:evenodd;stroke-width:1.00465;stroke-linecap:butt;stroke-linejoin:miter;stroke-miterlimit:4;stroke-dasharray:none;stroke-dashoffset:0;stroke-opacity:1;stop-color:#000000"
                 id="rect9743"
                 width="33.633736"
                 height="10.00629"
                 x="46.727943"
                 y="184.82036" />
              <rect
                 style="font-variation-settings:normal;mix-blend-mode:normal;vector-effect:none;fill:#4d4d4d;fill-opacity:1;fill-rule:evenodd;stroke-width:1.00433;stroke-linecap:butt;stroke-linejoin:miter;stroke-miterlimit:4;stroke-dasharray:none;stroke-dashoffset:0;stroke-opacity:1;stop-color:#000000"
                 id="rect9745"
                 width="33.633736"
                 height="10"
                 x="46.727943"
                 y="86.087151"
                 inkscape:transform-center-x="-0.012129028"
                 inkscape:transform-center-y="0.70925526" />
              <rect
                 style="font-variation-settings:normal;mix-blend-mode:normal;vector-effect:none;fill:#4d4d4d;fill-opacity:1;fill-rule:evenodd;stroke-width:1.00434;stroke-linecap:butt;stroke-linejoin:miter;stroke-miterlimit:4;stroke-dasharray:none;stroke-dashoffset:0;stroke-opacity:1;stop-color:#000000"
                 id="rect9747"
                 width="33.633736"
                 height="10"
                 x="46.727943"
                 y="100" />
            </g>
          </g>
          <g
             id="g13481"
             transform="matrix(0.58174437,0,0,0.5616997,58.216779,35.232113)">
            <rect
               style="font-variation-settings:normal;opacity:0.618167;vector-effect:none;fill:#008383;fill-opacity:1;fill-rule:evenodd;stroke-width:0.315244;stroke-linecap:butt;stroke-linejoin:miter;stroke-miterlimit:4;stroke-dasharray:none;stroke-dashoffset:0;stroke-opacity:1;filter:url(#filter4405);stop-color:#000000"
               id="rect13461"
               width="53.473263"
               height="149.54938"
               x="36.808178"
               y="69.777313" />
            <g
               id="g13479">
              <rect
                 style="font-variation-settings:normal;mix-blend-mode:normal;vector-effect:none;fill:#4d4d4d;fill-opacity:1;fill-rule:evenodd;stroke-width:1.00433;stroke-linecap:butt;stroke-linejoin:miter;stroke-miterlimit:4;stroke-dasharray:none;stroke-dashoffset:0;stroke-opacity:1;stop-color:#000000"
                 id="rect13463"
                 width="33.633736"
                 height="10"
                 x="46.565479"
                 y="113.75728"
                 inkscape:transform-center-x="-0.012129028"
                 inkscape:transform-center-y="0.70925526" />
              <rect
                 style="font-variation-settings:normal;mix-blend-mode:normal;vector-effect:none;fill:#4d4d4d;fill-opacity:1;fill-rule:evenodd;stroke-width:1.00433;stroke-linecap:butt;stroke-linejoin:miter;stroke-miterlimit:4;stroke-dasharray:none;stroke-dashoffset:0;stroke-opacity:1;stop-color:#000000"
                 id="rect13465"
                 width="33.633736"
                 height="10"
                 x="46.727943"
                 y="128.47084" />
              <rect
                 style="font-variation-settings:normal;mix-blend-mode:normal;vector-effect:none;fill:#4d4d4d;fill-opacity:1;fill-rule:evenodd;stroke-width:1.00465;stroke-linecap:butt;stroke-linejoin:miter;stroke-miterlimit:4;stroke-dasharray:none;stroke-dashoffset:0;stroke-opacity:1;stop-color:#000000"
                 id="rect13467"
                 width="33.633736"
                 height="10.00629"
                 x="46.727943"
                 y="142.94168" />
              <rect
                 style="font-variation-settings:normal;mix-blend-mode:normal;vector-effect:none;fill:#4d4d4d;fill-opacity:1;fill-rule:evenodd;stroke-width:1.00433;stroke-linecap:butt;stroke-linejoin:miter;stroke-miterlimit:4;stroke-dasharray:none;stroke-dashoffset:0;stroke-opacity:1;stop-color:#000000"
                 id="rect13469"
                 width="33.633736"
                 height="10"
                 x="46.727943"
                 y="157.41252" />
              <rect
                 style="font-variation-settings:normal;mix-blend-mode:normal;vector-effect:none;fill:#4d4d4d;fill-opacity:1;fill-rule:evenodd;stroke-width:1.00433;stroke-linecap:butt;stroke-linejoin:miter;stroke-miterlimit:4;stroke-dasharray:none;stroke-dashoffset:0;stroke-opacity:1;stop-color:#000000"
                 id="rect13471"
                 width="33.633736"
                 height="10"
                 x="46.727943"
                 y="171.82552" />
              <rect
                 style="font-variation-settings:normal;mix-blend-mode:normal;vector-effect:none;fill:#4d4d4d;fill-opacity:1;fill-rule:evenodd;stroke-width:1.00465;stroke-linecap:butt;stroke-linejoin:miter;stroke-miterlimit:4;stroke-dasharray:none;stroke-dashoffset:0;stroke-opacity:1;stop-color:#000000"
                 id="rect13473"
                 width="33.633736"
                 height="10.00629"
                 x="46.727943"
                 y="184.82036" />
              <rect
                 style="font-variation-settings:normal;mix-blend-mode:normal;vector-effect:none;fill:#4d4d4d;fill-opacity:1;fill-rule:evenodd;stroke-width:1.00433;stroke-linecap:butt;stroke-linejoin:miter;stroke-miterlimit:4;stroke-dasharray:none;stroke-dashoffset:0;stroke-opacity:1;stop-color:#000000"
                 id="rect13475"
                 width="33.633736"
                 height="10"
                 x="46.727943"
                 y="86.087151"
                 inkscape:transform-center-x="-0.012129028"
                 inkscape:transform-center-y="0.70925526" />
              <rect
                 style="font-variation-settings:normal;mix-blend-mode:normal;vector-effect:none;fill:#4d4d4d;fill-opacity:1;fill-rule:evenodd;stroke-width:1.00434;stroke-linecap:butt;stroke-linejoin:miter;stroke-miterlimit:4;stroke-dasharray:none;stroke-dashoffset:0;stroke-opacity:1;stop-color:#000000"
                 id="rect13477"
                 width="33.633736"
                 height="10"
                 x="46.727943"
                 y="100" />
            </g>
          </g>
        </g>
      </g>
      <g
         id="g1323">
        <path
           id="path2138"
           style="font-variation-settings:normal;vector-effect:none;fill:#e6e6e6;fill-opacity:1;fill-rule:evenodd;stroke-width:0.13716;stroke-linecap:butt;stroke-linejoin:miter;stroke-miterlimit:4;stroke-dasharray:none;stroke-dashoffset:0;stroke-opacity:1;stop-color:#000000"
           d="m 53.525128,89.186392 v 59.626568 h 40.5636 V 89.186392 H 78.723195 a 5.6968386,4.7707309 0 0 1 -5.003601,2.490021 5.6968386,4.7707309 0 0 1 -5.003598,-2.490021 z" />
        <g
           id="g1317">
          <path
             id="path2162"
             style="font-variation-settings:normal;vector-effect:none;fill:#1a1a1a;fill-opacity:1;fill-rule:evenodd;stroke-width:0.914328;stroke-linecap:butt;stroke-linejoin:miter;stroke-miterlimit:4;stroke-dasharray:none;stroke-dashoffset:0;stroke-opacity:1;filter:url(#filter2329);stop-color:#000000"
             d="m 254.53711,183.54297 v 399.83398 h 43.03125 l -20.76172,-17.42187 7.66797,-40.33203 21.37695,-50.12305 -41.97461,-25.72461 12.6836,-31.44727 -19.65821,-57.71874 42.31055,-36.6211 -31.00391,-34.96289 0.56055,-62.60547 78.31641,-19.07031 36.8164,17.57617 26.64258,-8.07812 42.97461,5.99609 50.23242,37.64648 -38.32226,40.89063 30.90625,52.91406 -25.99219,70.6543 33.73047,65.09961 V 183.54297 h -85.82813 a 37.011718,32.630858 0 0 1 -32.50781,17.03125 37.011718,32.630858 0 0 1 -26.61133,-9.95508 37.011718,32.630858 0 0 1 -12.94726,-7.07617 z m 249.53711,346.5957 -14.07617,49.10938 -31.00586,4.1289 h 45.08203 z m -143.14844,39.88477 -51.58789,13.35351 h 103.03125 z"
             transform="matrix(0.15391986,0,0,0.14861638,15.406068,61.519127)" />
          <path
             id="rect1532"
             style="font-variation-settings:normal;vector-effect:none;fill:#000000;fill-opacity:1;fill-rule:evenodd;stroke-width:0.138287;stroke-linecap:butt;stroke-linejoin:miter;stroke-miterlimit:4;stroke-dasharray:none;stroke-dashoffset:0;stroke-opacity:1;stop-color:#000000"
             d="m 53.506944,88.202152 v 60.610808 h 40.5636 V 88.202152 H 78.705011 a 5.6968386,4.8494799 0 0 1 -5.0036,2.531122 5.6968386,4.8494799 0 0 1 -5.003599,-2.531122 z m 14.245103,3.538057 5.666776,2.612106 4.100826,-1.200541 6.614643,0.891118 7.731767,5.594883 -5.898557,6.077015 4.757087,7.8639 -4.000714,10.50038 6.330554,11.79701 -3.305367,11.13433 -9.515378,1.22347 -10.351408,-2.5944 -9.32478,2.33054 -3.622829,-2.93517 1.180253,-5.994 3.290337,-7.4491 -6.460726,-3.8231 1.952258,-4.67358 -3.025789,-8.57795 6.512434,-5.4425 -4.772118,-5.19605 0.08628,-9.304201 z" />
        </g>
      </g>
    </g>
    <ellipse
       style="fill:#ffffff;fill-rule:evenodd;stroke:none;stroke-width:0.182056;stroke-linejoin:miter;stroke-miterlimit:4;stroke-dasharray:4.36934, 0.182056;stroke-dashoffset:0;stroke-opacity:0.931801"
       id="path1342"
       cx="57.722359"
       cy="91.366066"
       rx="1.3463221"
       ry="1.2677561" />
    <path
       id="path3793"
       style="fill:#97eeff;fill-opacity:1;fill-rule:evenodd;stroke:#000000;stroke-width:0.357332;stroke-miterlimit:4;stroke-dasharray:none;stroke-opacity:0.931801;filter:url(#filter5011)"
       d="m 99.087445,65.205259 -11.153429,0.109169 0.07299,5.910204 6.64e-4,-1.1e-5 a 5.9565608,5.5765576 88.250719 0 0 -1.08e-4,0.04677 5.9565608,5.5765576 88.250719 0 0 5.649934,5.900898 5.9565608,5.5765576 88.250719 0 0 5.503492,-6.010088 5.9565608,5.5765576 88.250719 0 0 -0.0011,-0.04646 l 6.52e-4,-10e-7 z M 94.262042,77.9789 a 0.6149938,0.59425638 87.223575 0 0 -0.601431,-0.609351 0.6149938,0.59425638 87.223575 0 0 -0.586807,0.621046 0.6149938,0.59425638 87.223575 0 0 0.602099,0.609314 0.6149938,0.59425638 87.223575 0 0 0.586302,-0.620865 z"
       transform="matrix(0.58174437,0,0,0.5616997,10.895905,61.956095)" />
    <path
       style="fill:none;stroke:#000000;stroke-width:0.264583px;stroke-linecap:butt;stroke-linejoin:miter;stroke-opacity:1;filter:url(#filter5011)"
       d="M 72.939064,72.033184 H 83.348182 V 61.380982 h 7.657717 v 3.724159"
       id="path3795"
       transform="matrix(0.58174437,0,0,0.5616997,10.895905,61.956095)" />
    <path
       style="fill:none;stroke:#000000;stroke-width:0.264583px;stroke-linecap:butt;stroke-linejoin:miter;stroke-opacity:1;filter:url(#filter5011)"
       d="m 73.057246,58.578257 h 23.461591 v 6.508964"
       id="path3797"
       transform="matrix(0.54295798,0,0,0.56633688,14.682248,61.669365)" />
    <path
       style="fill:none;stroke:#000000;stroke-width:0.264017px;stroke-linecap:butt;stroke-linejoin:miter;stroke-opacity:1;filter:url(#filter5011)"
       d="M 73.013146,86.59234 H 93.670722 V 78.756676"
       id="path3799"
       transform="matrix(0.5410417,0,0,0.56579101,14.745804,61.617848)" />
    <g
       id="g1274">
      <path
         id="path970"
         style="fill:#97eeff;fill-opacity:1;fill-rule:evenodd;stroke:#000000;stroke-width:0.204263;stroke-miterlimit:4;stroke-dasharray:none;stroke-opacity:0.931801"
         d="m 68.539204,98.581382 -6.488444,0.06132 0.04246,3.319758 h 3.87e-4 a 3.3460316,3.2439049 86.269496 0 0 -6.3e-5,0.0263 3.3460316,3.2439049 86.269496 0 0 3.286817,3.31453 3.3460316,3.2439049 86.269496 0 0 3.201625,-3.37587 3.3460316,3.2439049 86.269496 0 0 -6.39e-4,-0.0261 h 3.79e-4 z m -2.807151,7.174948 a 0.34616945,0.34497866 37.22715 0 0 -0.349879,-0.34227 0.34616945,0.34497866 37.22715 0 0 -0.341372,0.34884 0.34616945,0.34497866 37.22715 0 0 0.350268,0.34225 0.34616945,0.34497866 37.22715 0 0 0.341078,-0.34874 z" />
      <path
         style="fill:none;stroke:#000000;stroke-width:0.148999px;stroke-linecap:butt;stroke-linejoin:miter;stroke-opacity:1"
         d="m 53.641448,102.41742 h 5.875421 v -5.984921 h 4.322393 v 2.09241"
         id="path2199" />
      <path
         style="fill:none;stroke:#000000;stroke-width:0.149902px;stroke-linecap:butt;stroke-linejoin:miter;stroke-opacity:1"
         d="m 53.640991,94.858668 h 13.404951 v 3.656756"
         id="path2195" />
      <path
         style="fill:none;stroke:#000000;stroke-width:0.150071px;stroke-linecap:butt;stroke-linejoin:miter;stroke-opacity:1"
         d="m 53.507436,110.59471 h 11.88126 v -4.40172"
         id="path2203" />
    </g>
    <path
       id="path5025"
       style="fill:#97eeff;fill-opacity:1;fill-rule:evenodd;stroke:#000000;stroke-width:0.357332;stroke-miterlimit:4;stroke-dasharray:none;stroke-opacity:0.931801;filter:url(#filter5267)"
       d="m 99.450686,117.68829 -11.153429,-0.10917 0.07299,-5.9102 6.64e-4,1e-5 a 5.5765576,5.9565608 1.749281 0 1 -1.08e-4,-0.0468 5.5765576,5.9565608 1.749281 0 1 5.649934,-5.9009 5.5765576,5.9565608 1.749281 0 1 5.503492,6.01009 5.5765576,5.9565608 1.749281 0 1 -0.0011,0.0465 h 6.52e-4 z m -4.825403,-12.77364 a 0.59425638,0.6149938 2.776425 0 1 -0.601431,0.60935 0.59425638,0.6149938 2.776425 0 1 -0.586807,-0.62104 0.59425638,0.6149938 2.776425 0 1 0.602099,-0.60932 0.59425638,0.6149938 2.776425 0 1 0.586302,0.62087 z"
       transform="matrix(0.58174437,0,0,0.5616997,11.075332,61.472298)" />
    <path
       style="fill:none;stroke:#000000;stroke-width:0.265;stroke-linecap:butt;stroke-linejoin:miter;stroke-miterlimit:4;stroke-dasharray:none;stroke-opacity:1;filter:url(#filter5267)"
       d="m 73.013146,102.2151 h 21.025895 v 1.89984"
       id="path5027"
       transform="matrix(0.54936643,0,0,0.56919626,14.156798,60.698915)" />
    <path
       style="fill:none;stroke:#000000;stroke-width:0.264583px;stroke-linecap:butt;stroke-linejoin:miter;stroke-opacity:1;filter:url(#filter5267)"
       d="m 73.022835,115.73119 h 11.947146 v 5.75728 h 6.924038 v -3.86766"
       id="path5029"
       transform="matrix(0.54941299,0,0,0.56536531,14.074708,61.03752)" />
    <path
       style="fill:none;stroke:#000000;stroke-width:0.264583px;stroke-linecap:butt;stroke-linejoin:miter;stroke-opacity:1;filter:url(#filter5267)"
       d="M 73.163331,130.63964 H 96.986166 V 117.76736"
       id="path5031"
       transform="matrix(0.58174437,0,0,0.5616997,11.075332,61.472298)" />
    <g
       id="g1280">
      <path
         id="path2211"
         style="fill:#97eeff;fill-opacity:1;fill-rule:evenodd;stroke:#000000;stroke-width:0.204263;stroke-miterlimit:4;stroke-dasharray:none;stroke-opacity:0.931801"
         d="m 68.930209,127.57778 -6.488445,-0.0613 0.04246,-3.31975 h 3.86e-4 a 3.2439049,3.3460316 3.7305039 0 1 -6.3e-5,-0.0263 3.2439049,3.3460316 3.7305039 0 1 3.286817,-3.31453 3.2439049,3.3460316 3.7305039 0 1 3.201626,3.37587 3.2439049,3.3460316 3.7305039 0 1 -6.4e-4,0.0261 h 3.79e-4 z m -2.807151,-7.17495 a 0.34497866,0.34616945 52.77285 0 1 -0.349879,0.34227 0.34497866,0.34616945 52.77285 0 1 -0.341372,-0.34884 0.34497866,0.34616945 52.77285 0 1 0.350268,-0.34226 0.34497866,0.34616945 52.77285 0 1 0.341077,0.34875 z" />
      <path
         style="fill:none;stroke:#000000;stroke-width:0.151483;stroke-linecap:butt;stroke-linejoin:miter;stroke-miterlimit:4;stroke-dasharray:none;stroke-opacity:1"
         d="m 53.550319,118.88649 h 12.231696 v 1.06714"
         id="path2217" />
      <path
         style="fill:none;stroke:#000000;stroke-width:0.151245px;stroke-linecap:butt;stroke-linejoin:miter;stroke-opacity:1"
         d="m 53.555955,126.47847 h 6.950185 v 3.23387 h 4.02802 v -2.17247"
         id="path2241" />
      <path
         style="fill:none;stroke:#000000;stroke-width:0.151245px;stroke-linecap:butt;stroke-linejoin:miter;stroke-opacity:1"
         d="m 53.637688,134.85254 h 13.8588 v -7.23035"
         id="path2243" />
    </g>
    <path
       id="path5271"
       style="fill:#97eeff;fill-opacity:1;fill-rule:evenodd;stroke:#000000;stroke-width:0.357332;stroke-miterlimit:4;stroke-dasharray:none;stroke-opacity:0.931801;filter:url(#filter5285)"
       d="m 99.450686,117.68829 -11.153429,-0.10917 0.07299,-5.9102 6.64e-4,1e-5 a 5.5765576,5.9565608 1.749281 0 1 -1.08e-4,-0.0468 5.5765576,5.9565608 1.749281 0 1 5.649934,-5.9009 5.5765576,5.9565608 1.749281 0 1 5.503492,6.01009 5.5765576,5.9565608 1.749281 0 1 -0.0011,0.0465 h 6.52e-4 z m -4.825403,-12.77364 a 0.59425638,0.6149938 2.776425 0 1 -0.601431,0.60935 0.59425638,0.6149938 2.776425 0 1 -0.586807,-0.62104 0.59425638,0.6149938 2.776425 0 1 0.602099,-0.60932 0.59425638,0.6149938 2.776425 0 1 0.586302,0.62087 z"
       transform="matrix(-0.58174437,0,0,0.5616997,136.5453,69.606462)" />
    <path
       style="fill:none;stroke:#000000;stroke-width:0.265;stroke-linecap:butt;stroke-linejoin:miter;stroke-miterlimit:4;stroke-dasharray:none;stroke-opacity:1;filter:url(#filter5285)"
       d="m 73.013146,102.2151 h 21.025895 v 1.89984"
       id="path5273"
       transform="matrix(-0.5475047,0,0,0.56963738,133.28664,68.787571)" />
    <path
       style="fill:none;stroke:#000000;stroke-width:0.264583px;stroke-linecap:butt;stroke-linejoin:miter;stroke-opacity:1;filter:url(#filter5285)"
       d="m 73.022835,115.73119 h 11.947146 v 5.75728 h 6.924038 v -3.86766"
       id="path5275"
       transform="matrix(-0.58174437,0,0,0.5616997,136.5453,69.606462)" />
    <path
       style="fill:none;stroke:#000000;stroke-width:0.264583px;stroke-linecap:butt;stroke-linejoin:miter;stroke-opacity:1;filter:url(#filter5285)"
       d="M 73.163331,130.63964 H 96.986166 V 117.76736"
       id="path5277"
       transform="matrix(-0.58174437,0,0,0.5616997,136.5453,69.606462)" />
    <g
       id="g1309">
      <path
         id="path2271"
         style="fill:#97eeff;fill-opacity:1;fill-rule:evenodd;stroke:#000000;stroke-width:0.204263;stroke-miterlimit:4;stroke-dasharray:none;stroke-opacity:0.931801"
         d="m 78.690423,135.71194 6.488445,-0.0613 -0.04246,-3.31976 -3.86e-4,1e-5 a 3.3460316,3.2439049 86.269496 0 0 6.3e-5,-0.0263 3.3460316,3.2439049 86.269496 0 0 -3.286817,-3.31453 3.3460316,3.2439049 86.269496 0 0 -3.201626,3.37586 3.3460316,3.2439049 86.269496 0 0 6.4e-4,0.0261 h -3.79e-4 z m 2.807151,-7.17495 a 0.34616945,0.34497866 37.22715 0 0 0.349879,0.34227 0.34616945,0.34497866 37.22715 0 0 0.341372,-0.34884 0.34616945,0.34497866 37.22715 0 0 -0.350268,-0.34225 0.34616945,0.34497866 37.22715 0 0 -0.341077,0.34874 z" />
      <path
         style="fill:none;stroke:#000000;stroke-width:0.151483;stroke-linecap:butt;stroke-linejoin:miter;stroke-miterlimit:4;stroke-dasharray:none;stroke-opacity:1"
         d="M 94.070313,127.02065 H 81.838617 v 1.06714"
         id="path2273" />
      <path
         style="fill:none;stroke:#000000;stroke-width:0.151245px;stroke-linecap:butt;stroke-linejoin:miter;stroke-opacity:1"
         d="m 94.064677,134.61264 h -6.950185 v 3.23386 h -4.02802 v -2.17246"
         id="path2275" />
      <path
         style="fill:none;stroke:#000000;stroke-width:0.151245px;stroke-linecap:butt;stroke-linejoin:miter;stroke-opacity:1"
         d="m 93.982944,142.98671 h -13.8588 v -7.23036"
         id="path2277" />
    </g>
    <path
       id="path5289"
       style="fill:#97eeff;fill-opacity:1;fill-rule:evenodd;stroke:#000000;stroke-width:0.357332;stroke-miterlimit:4;stroke-dasharray:none;stroke-opacity:0.931801;filter:url(#filter5303)"
       d="m 99.450686,117.68829 -11.153429,-0.10917 0.07299,-5.9102 6.64e-4,1e-5 a 5.5765576,5.9565608 1.749281 0 1 -1.08e-4,-0.0468 5.5765576,5.9565608 1.749281 0 1 5.649934,-5.9009 5.5765576,5.9565608 1.749281 0 1 5.503492,6.01009 5.5765576,5.9565608 1.749281 0 1 -0.0011,0.0465 h 6.52e-4 z m -4.825403,-12.77364 a 0.59425638,0.6149938 2.776425 0 1 -0.601431,0.60935 0.59425638,0.6149938 2.776425 0 1 -0.586807,-0.62104 0.59425638,0.6149938 2.776425 0 1 0.602099,-0.60932 0.59425638,0.6149938 2.776425 0 1 0.586302,0.62087 z"
       transform="matrix(-0.58174437,0,0,0.5616997,136.54525,44.668055)" />
    <path
       style="fill:none;stroke:#000000;stroke-width:0.265;stroke-linecap:butt;stroke-linejoin:miter;stroke-miterlimit:4;stroke-dasharray:none;stroke-opacity:1;filter:url(#filter5303)"
       d="m 73.013146,102.2151 h 21.025895 v 1.89984"
       id="path5291"
       transform="matrix(-0.54750455,0,0,0.56963741,133.28658,43.849161)" />
    <path
       style="fill:none;stroke:#000000;stroke-width:0.264583px;stroke-linecap:butt;stroke-linejoin:miter;stroke-opacity:1;filter:url(#filter5303)"
       d="m 73.022835,115.73119 h 11.947146 v 5.75728 h 6.924038 v -3.86766"
       id="path5293"
       transform="matrix(-0.54703774,0,0,0.56563982,133.32551,44.200718)" />
    <path
       style="fill:none;stroke:#000000;stroke-width:0.264583px;stroke-linecap:butt;stroke-linejoin:miter;stroke-opacity:1;filter:url(#filter5303)"
       d="M 73.163331,130.63964 H 96.986166 V 117.76736"
       id="path5295"
       transform="matrix(-0.58174437,0,0,0.5616997,136.54525,44.668055)" />
    <g
       id="g1303">
      <path
         id="path2281"
         style="fill:#97eeff;fill-opacity:1;fill-rule:evenodd;stroke:#000000;stroke-width:0.204263;stroke-miterlimit:4;stroke-dasharray:none;stroke-opacity:0.931801"
         d="m 78.690373,110.77353 6.488445,-0.0613 -0.04246,-3.31976 -3.86e-4,1e-5 a 3.3460316,3.2439049 86.269496 0 0 6.3e-5,-0.0263 3.3460316,3.2439049 86.269496 0 0 -3.286817,-3.31453 3.3460316,3.2439049 86.269496 0 0 -3.201626,3.37586 3.3460316,3.2439049 86.269496 0 0 6.4e-4,0.0261 h -3.79e-4 z m 2.807151,-7.17495 a 0.34616945,0.34497866 37.22715 0 0 0.349879,0.34227 0.34616945,0.34497866 37.22715 0 0 0.341372,-0.34883 0.34616945,0.34497866 37.22715 0 0 -0.350268,-0.34226 0.34616945,0.34497866 37.22715 0 0 -0.341077,0.34874 z" />
      <path
         style="fill:none;stroke:#000000;stroke-width:0.151483;stroke-linecap:butt;stroke-linejoin:miter;stroke-miterlimit:4;stroke-dasharray:none;stroke-opacity:1"
         d="M 94.070263,102.08225 H 81.838567 v 1.06714"
         id="path2283" />
      <path
         style="fill:none;stroke:#000000;stroke-width:0.151245px;stroke-linecap:butt;stroke-linejoin:miter;stroke-opacity:1"
         d="m 94.064627,109.67423 h -6.950185 v 3.23386 h -4.02802 v -2.17246"
         id="path2285" />
      <path
         style="fill:none;stroke:#000000;stroke-width:0.151245px;stroke-linecap:butt;stroke-linejoin:miter;stroke-opacity:1"
         d="m 93.982894,118.0483 h -13.8588 v -7.23035"
         id="path2287" />
    </g>
    <text
       xml:space="preserve"
       style="font-style:normal;font-variant:normal;font-weight:normal;font-stretch:normal;font-size:7.05111px;line-height:1.55;font-family:'times new roman';-inkscape-font-specification:'times new roman, ';fill:#000000;fill-opacity:1;stroke:none;stroke-width:0.176278"
       x="-127.15593"
       y="78.005798"
       id="text5309"
       transform="matrix(0,-1.0223829,0.97810717,0,0,0)"><tspan
         sodipodi:role="line"
         id="tspan5307"
         x="-127.15593"
         y="78.005798"
         style="font-style:normal;font-variant:normal;font-weight:normal;font-stretch:normal;font-family:'times new roman';-inkscape-font-specification:'times new roman, ';stroke-width:0.176278">IC 4011</tspan></text>
  </g>
</svg>
