<?xml version="1.0" encoding="UTF-8" standalone="no"?>
<svg
   xmlns:osb="http://www.openswatchbook.org/uri/2009/osb"
   xmlns:dc="http://purl.org/dc/elements/1.1/"
   xmlns:cc="http://creativecommons.org/ns#"
   xmlns:rdf="http://www.w3.org/1999/02/22-rdf-syntax-ns#"
   xmlns:svg="http://www.w3.org/2000/svg"
   xmlns="http://www.w3.org/2000/svg"
   xmlns:sodipodi="http://sodipodi.sourceforge.net/DTD/sodipodi-0.dtd"
   xmlns:inkscape="http://www.inkscape.org/namespaces/inkscape"
   width="105.83334mm"
   height="178.40477mm"
   viewBox="0 0 105.83334 178.40477"
   version="1.1"
   id="svg861"
   inkscape:version="1.0.2 (e86c870879, 2021-01-15)"
   sodipodi:docname="7400.svg">
  <defs
     id="defs855">
    <marker
       style="overflow:visible"
       id="marker1280"
       refX="0"
       refY="0"
       orient="auto"
       inkscape:stockid="Arrow1Lstart"
       inkscape:isstock="true">
      <path
         transform="matrix(0.8,0,0,0.8,10,0)"
         style="fill:#ffffff;fill-opacity:1;fill-rule:evenodd;stroke:#000000;stroke-width:1pt;stroke-opacity:0.931801"
         d="M 0,0 5,-5 -12.5,0 5,5 Z"
         id="path1278" />
    </marker>
    <marker
       style="overflow:visible"
       id="marker1258"
       refX="0"
       refY="0"
       orient="auto"
       inkscape:stockid="Arrow1Lstart"
       inkscape:isstock="true">
      <path
         transform="matrix(0.8,0,0,0.8,10,0)"
         style="fill:#ffffff;fill-opacity:1;fill-rule:evenodd;stroke:#000000;stroke-width:1pt;stroke-opacity:0.931801"
         d="M 0,0 5,-5 -12.5,0 5,5 Z"
         id="path1256" />
    </marker>
    <marker
       style="overflow:visible"
       id="Arrow1Lstart"
       refX="0"
       refY="0"
       orient="auto"
       inkscape:stockid="Arrow1Lstart"
       inkscape:isstock="true">
      <path
         transform="matrix(0.8,0,0,0.8,10,0)"
         style="fill:#ffffff;fill-opacity:1;fill-rule:evenodd;stroke:#000000;stroke-width:1pt;stroke-opacity:0.931801"
         d="M 0,0 5,-5 -12.5,0 5,5 Z"
         id="path980" />
    </marker>
    <linearGradient
       id="linearGradient3505"
       osb:paint="gradient">
      <stop
         style="stop-color:#4d4d4d;stop-opacity:1;"
         offset="0"
         id="stop3501" />
      <stop
         style="stop-color:#4d4d4d;stop-opacity:0;"
         offset="1"
         id="stop3503" />
    </linearGradient>
    <linearGradient
       id="linearGradient3481"
       osb:paint="solid">
      <stop
         style="stop-color:#4d4d4d;stop-opacity:1;"
         offset="0"
         id="stop3479" />
    </linearGradient>
    <linearGradient
       id="linearGradient3464"
       osb:paint="solid">
      <stop
         style="stop-color:#fcfff6;stop-opacity:0.21176472;"
         offset="0"
         id="stop3462" />
    </linearGradient>
    <linearGradient
       id="linearGradient1458"
       osb:paint="solid">
      <stop
         style="stop-color:#001919;stop-opacity:0.46894056;"
         offset="0"
         id="stop1456" />
    </linearGradient>
    <linearGradient
       id="linearGradient1444"
       osb:paint="solid">
      <stop
         style="stop-color:#171816;stop-opacity:1;"
         offset="0"
         id="stop1442" />
    </linearGradient>
    <linearGradient
       id="linearGradient1438"
       osb:paint="solid">
      <stop
         style="stop-color:#010101;stop-opacity:0.36078432;"
         offset="0"
         id="stop1436" />
    </linearGradient>
    <filter
       inkscape:collect="always"
       style="color-interpolation-filters:sRGB"
       id="filter2329"
       x="-0.096052341"
       width="1.1921047"
       y="-0.05994644"
       height="1.119893">
      <feGaussianBlur
         inkscape:collect="always"
         stdDeviation="9.9869265"
         id="feGaussianBlur2331" />
    </filter>
    <filter
       inkscape:collect="always"
       style="color-interpolation-filters:sRGB"
       id="filter5011"
       x="-0.064844802"
       width="1.1296896"
       y="-0.060697563"
       height="1.1213951">
      <feGaussianBlur
         inkscape:collect="always"
         stdDeviation="0.70849442"
         id="feGaussianBlur5013" />
    </filter>
    <filter
       inkscape:collect="always"
       style="color-interpolation-filters:sRGB"
       id="filter5267"
       x="-0.065199569"
       width="1.1303991"
       y="-0.060811628"
       height="1.1216233">
      <feGaussianBlur
         inkscape:collect="always"
         stdDeviation="0.72022604"
         id="feGaussianBlur5269" />
    </filter>
    <filter
       inkscape:collect="always"
       style="color-interpolation-filters:sRGB"
       id="filter5285"
       x="-0.065199569"
       width="1.1303991"
       y="-0.060811628"
       height="1.1216233">
      <feGaussianBlur
         inkscape:collect="always"
         stdDeviation="0.72022604"
         id="feGaussianBlur5287" />
    </filter>
    <filter
       inkscape:collect="always"
       style="color-interpolation-filters:sRGB"
       id="filter5303"
       x="-0.065199569"
       width="1.1303991"
       y="-0.060811628"
       height="1.1216233">
      <feGaussianBlur
         inkscape:collect="always"
         stdDeviation="0.72022604"
         id="feGaussianBlur5305" />
    </filter>
    <filter
       inkscape:collect="always"
       style="color-interpolation-filters:sRGB"
       id="filter4405"
       x="-0.091147304"
       width="1.1822946"
       y="-0.032590866"
       height="1.0651817">
      <feGaussianBlur
         inkscape:collect="always"
         stdDeviation="2.03081"
         id="feGaussianBlur4407" />
    </filter>
  </defs>
  <sodipodi:namedview
     id="base"
     pagecolor="#ffffff"
     bordercolor="#666666"
     borderopacity="1.0"
     inkscape:pageopacity="0.0"
     inkscape:pageshadow="2"
     inkscape:zoom="0.52347032"
     inkscape:cx="230.71508"
     inkscape:cy="512.78574"
     inkscape:document-units="mm"
     inkscape:current-layer="layer1"
     inkscape:document-rotation="0"
     showgrid="false"
     inkscape:snap-global="true"
     inkscape:lockguides="true"
     inkscape:window-width="1920"
     inkscape:window-height="1043"
     inkscape:window-x="0"
     inkscape:window-y="0"
     inkscape:window-maximized="1"
     inkscape:object-nodes="false"
     inkscape:snap-bbox="true"
     inkscape:bbox-nodes="true"
     inkscape:snap-bbox-midpoints="true"
     inkscape:bbox-paths="true"
     inkscape:snap-object-midpoints="true"
     inkscape:snap-center="true"
     inkscape:snap-bbox-edge-midpoints="true" />
  <metadata
     id="metadata858">
    <rdf:RDF>
      <cc:Work
         rdf:about="">
        <dc:format>image/svg+xml</dc:format>
        <dc:type
           rdf:resource="http://purl.org/dc/dcmitype/StillImage" />
        <dc:title></dc:title>
      </cc:Work>
    </rdf:RDF>
  </metadata>
  <g
     inkscape:label="Layer 1"
     inkscape:groupmode="layer"
     id="layer1"
     transform="translate(-6.3230118,-0.7241964)">
    <path
       id="path3744"
       style="fill:#ffffff;fill-opacity:1;fill-rule:evenodd;stroke:#000000;stroke-width:0.151;stroke-miterlimit:4;stroke-dasharray:none;stroke-opacity:0.931801"
       d="m 55.490897,-19.275199 v 8.823192 h 4.518197 v -6.67e-4 a 4.5530596,4.41114 0 0 0 0.03533,2.3e-4 4.5530596,4.41114 0 0 0 4.553055,-4.411137 4.5530596,4.41114 0 0 0 -4.553055,-4.411137 4.5530596,4.41114 0 0 0 -0.03533,2.31e-4 v -7.11e-4 z" />
    <path
       id="path3788"
       style="fill:#ffffff;stroke:#000000;stroke-width:0.150554px;stroke-linecap:butt;stroke-linejoin:miter;stroke-opacity:1"
       d="m 72.121656,-19.777899 c 4.009025,4.617235 0.07862,9.524152 0.05848,9.550184 10.609898,-2.680274 13.801166,-5.830883 -0.05848,-9.550184 z" />
    <path
       id="path3792"
       style="fill:#ffffff;stroke:#000000;stroke-width:0.138234px;stroke-linecap:butt;stroke-linejoin:miter;stroke-opacity:1"
       d="m 91.142141,-19.830545 c 3.564699,4.377671 0.0701,9.030065 0.05219,9.054745 9.433989,-2.541209 12.271369,-5.528424 -0.05219,-9.054745 z m 8.782927,4.080372 a 0.44203921,0.44203918 0 0 0 -0.438216,0.442349 0.44203921,0.44203918 0 0 0 0.44235,0.441836 0.44203921,0.44203918 0 0 0 0.441838,-0.441836 0.44203921,0.44203918 0 0 0 -0.441838,-0.442349 0.44203921,0.44203918 0 0 0 -0.0041,0 z" />
    <path
       id="path3798"
       style="fill:#ffffff;fill-opacity:1;fill-rule:evenodd;stroke:#000000;stroke-width:0.298343;stroke-miterlimit:4;stroke-dasharray:none;stroke-opacity:0.931801"
       d="m 33.286854,-19.352078 0.261782,8.843101 5.193763,-0.107206 -2.5e-5,-5.26e-4 a 5.235616,4.4226483 0.09640193 0 0 0.04106,-3.21e-4 5.235616,4.4226483 0.09640193 0 0 5.102668,-4.529317 5.235616,4.4226483 0.09640193 0 0 -5.36446,-4.313781 5.235616,4.4226483 0.09640193 0 0 -0.04083,0.0013 l -1.3e-5,-5.15e-4 z m 11.299291,3.719642 a 0.54056111,0.47128998 0.44479704 0 0 -0.526648,0.481984 0.54056111,0.47128998 0.44479704 0 0 0.554595,0.460126 0.54056111,0.47128998 0.44479704 0 0 0.526622,-0.4825 0.54056111,0.47128998 0.44479704 0 0 -0.554431,-0.459723 z" />
    <path
       id="path3807"
       style="fill:none;stroke:#000000;stroke-width:0.151;stroke-linecap:butt;stroke-linejoin:miter;stroke-miterlimit:4;stroke-dasharray:none;stroke-opacity:1"
       d="m 10.494031,-19.452871 c 3.095011,3.13915 2.82588,6.30425 0.09293,9.4883603 m 1.637048,-9.3531003 c 4.009025,4.61724 0.07862,9.5241603 0.05848,9.5501903 10.609898,-2.6802803 13.801166,-5.8308903 -0.05848,-9.5501903 z" />
    <g
       id="g1417"
       transform="matrix(0.60476191,0,0,0.60476191,10.919388,17.365621)">
      <g
         id="g5335"
         transform="matrix(0.96193951,0,0,0.92879478,1.892856,29.555239)">
        <rect
           style="font-variation-settings:normal;vector-effect:none;fill:#1eadc9;fill-opacity:1;fill-rule:evenodd;stroke-width:0.286762;stroke-linecap:butt;stroke-linejoin:miter;stroke-miterlimit:4;stroke-dasharray:none;stroke-dashoffset:0;stroke-opacity:1;stop-color:#000000"
           id="rect1229"
           width="141.47256"
           height="233.88893"
           x="30.582783"
           y="22.279009"
           rx="10.052577"
           ry="11.685371" />
        <path
           id="rect983"
           style="font-variation-settings:normal;vector-effect:none;fill:#0052af;fill-opacity:1;fill-rule:evenodd;stroke-width:0.264583;stroke-linecap:butt;stroke-linejoin:miter;stroke-miterlimit:4;stroke-dasharray:none;stroke-dashoffset:0;stroke-opacity:1;stop-color:#000000"
           d="M 3.8500471,-61.447968 V 40.307064 c 0,8.309998 6.6901199,15.000117 15.0001189,15.000117 H 30.582783 V 47.806865 H 18.850166 c -4.155001,0 -7.499803,-3.344801 -7.499803,-7.499801 V -61.447968 Z" />
        <rect
           style="font-variation-settings:normal;vector-effect:none;fill:#72b3c7;fill-opacity:1;fill-rule:evenodd;stroke:none;stroke-width:0.289398;stroke-linecap:butt;stroke-linejoin:miter;stroke-miterlimit:4;stroke-dasharray:none;stroke-dashoffset:0;stroke-opacity:1;stop-color:#000000"
           id="rect998"
           width="34.45649"
           height="49.977802"
           x="-9.8687735"
           y="-61.447971"
           rx="14.999997"
           ry="17.945637" />
      </g>
      <g
         id="g13767"
         transform="matrix(0.96193951,0,0,0.92879478,1.892856,29.555239)">
        <g
           id="g13459">
          <rect
             style="font-variation-settings:normal;opacity:0.618167;vector-effect:none;fill:#008383;fill-opacity:1;fill-rule:evenodd;stroke-width:0.315244;stroke-linecap:butt;stroke-linejoin:miter;stroke-miterlimit:4;stroke-dasharray:none;stroke-dashoffset:0;stroke-opacity:1;filter:url(#filter4405);stop-color:#000000"
             id="rect9731"
             width="53.473263"
             height="149.54938"
             x="36.808178"
             y="69.777313" />
          <g
             id="g13447">
            <rect
               style="font-variation-settings:normal;mix-blend-mode:normal;vector-effect:none;fill:#4d4d4d;fill-opacity:1;fill-rule:evenodd;stroke-width:1.00433;stroke-linecap:butt;stroke-linejoin:miter;stroke-miterlimit:4;stroke-dasharray:none;stroke-dashoffset:0;stroke-opacity:1;stop-color:#000000"
               id="rect9733"
               width="33.633736"
               height="10"
               x="46.565479"
               y="113.75728"
               inkscape:transform-center-x="-0.012129028"
               inkscape:transform-center-y="0.70925526" />
            <rect
               style="font-variation-settings:normal;mix-blend-mode:normal;vector-effect:none;fill:#4d4d4d;fill-opacity:1;fill-rule:evenodd;stroke-width:1.00433;stroke-linecap:butt;stroke-linejoin:miter;stroke-miterlimit:4;stroke-dasharray:none;stroke-dashoffset:0;stroke-opacity:1;stop-color:#000000"
               id="rect9735"
               width="33.633736"
               height="10"
               x="46.727943"
               y="128.47084" />
            <rect
               style="font-variation-settings:normal;mix-blend-mode:normal;vector-effect:none;fill:#4d4d4d;fill-opacity:1;fill-rule:evenodd;stroke-width:1.00465;stroke-linecap:butt;stroke-linejoin:miter;stroke-miterlimit:4;stroke-dasharray:none;stroke-dashoffset:0;stroke-opacity:1;stop-color:#000000"
               id="rect9737"
               width="33.633736"
               height="10.00629"
               x="46.727943"
               y="142.94168" />
            <rect
               style="font-variation-settings:normal;mix-blend-mode:normal;vector-effect:none;fill:#4d4d4d;fill-opacity:1;fill-rule:evenodd;stroke-width:1.00433;stroke-linecap:butt;stroke-linejoin:miter;stroke-miterlimit:4;stroke-dasharray:none;stroke-dashoffset:0;stroke-opacity:1;stop-color:#000000"
               id="rect9739"
               width="33.633736"
               height="10"
               x="46.727943"
               y="157.41252" />
            <rect
               style="font-variation-settings:normal;mix-blend-mode:normal;vector-effect:none;fill:#4d4d4d;fill-opacity:1;fill-rule:evenodd;stroke-width:1.00433;stroke-linecap:butt;stroke-linejoin:miter;stroke-miterlimit:4;stroke-dasharray:none;stroke-dashoffset:0;stroke-opacity:1;stop-color:#000000"
               id="rect9741"
               width="33.633736"
               height="10"
               x="46.727943"
               y="171.82552" />
            <rect
               style="font-variation-settings:normal;mix-blend-mode:normal;vector-effect:none;fill:#4d4d4d;fill-opacity:1;fill-rule:evenodd;stroke-width:1.00465;stroke-linecap:butt;stroke-linejoin:miter;stroke-miterlimit:4;stroke-dasharray:none;stroke-dashoffset:0;stroke-opacity:1;stop-color:#000000"
               id="rect9743"
               width="33.633736"
               height="10.00629"
               x="46.727943"
               y="184.82036" />
            <rect
               style="font-variation-settings:normal;mix-blend-mode:normal;vector-effect:none;fill:#4d4d4d;fill-opacity:1;fill-rule:evenodd;stroke-width:1.00433;stroke-linecap:butt;stroke-linejoin:miter;stroke-miterlimit:4;stroke-dasharray:none;stroke-dashoffset:0;stroke-opacity:1;stop-color:#000000"
               id="rect9745"
               width="33.633736"
               height="10"
               x="46.727943"
               y="86.087151"
               inkscape:transform-center-x="-0.012129028"
               inkscape:transform-center-y="0.70925526" />
            <rect
               style="font-variation-settings:normal;mix-blend-mode:normal;vector-effect:none;fill:#4d4d4d;fill-opacity:1;fill-rule:evenodd;stroke-width:1.00434;stroke-linecap:butt;stroke-linejoin:miter;stroke-miterlimit:4;stroke-dasharray:none;stroke-dashoffset:0;stroke-opacity:1;stop-color:#000000"
               id="rect9747"
               width="33.633736"
               height="10"
               x="46.727943"
               y="100" />
          </g>
        </g>
        <g
           id="g13481"
           transform="translate(73.554207)">
          <rect
             style="font-variation-settings:normal;opacity:0.618167;vector-effect:none;fill:#008383;fill-opacity:1;fill-rule:evenodd;stroke-width:0.315244;stroke-linecap:butt;stroke-linejoin:miter;stroke-miterlimit:4;stroke-dasharray:none;stroke-dashoffset:0;stroke-opacity:1;filter:url(#filter4405);stop-color:#000000"
             id="rect13461"
             width="53.473263"
             height="149.54938"
             x="36.808178"
             y="69.777313" />
          <g
             id="g13479">
            <rect
               style="font-variation-settings:normal;mix-blend-mode:normal;vector-effect:none;fill:#4d4d4d;fill-opacity:1;fill-rule:evenodd;stroke-width:1.00433;stroke-linecap:butt;stroke-linejoin:miter;stroke-miterlimit:4;stroke-dasharray:none;stroke-dashoffset:0;stroke-opacity:1;stop-color:#000000"
               id="rect13463"
               width="33.633736"
               height="10"
               x="46.565479"
               y="113.75728"
               inkscape:transform-center-x="-0.012129028"
               inkscape:transform-center-y="0.70925526" />
            <rect
               style="font-variation-settings:normal;mix-blend-mode:normal;vector-effect:none;fill:#4d4d4d;fill-opacity:1;fill-rule:evenodd;stroke-width:1.00433;stroke-linecap:butt;stroke-linejoin:miter;stroke-miterlimit:4;stroke-dasharray:none;stroke-dashoffset:0;stroke-opacity:1;stop-color:#000000"
               id="rect13465"
               width="33.633736"
               height="10"
               x="46.727943"
               y="128.47084" />
            <rect
               style="font-variation-settings:normal;mix-blend-mode:normal;vector-effect:none;fill:#4d4d4d;fill-opacity:1;fill-rule:evenodd;stroke-width:1.00465;stroke-linecap:butt;stroke-linejoin:miter;stroke-miterlimit:4;stroke-dasharray:none;stroke-dashoffset:0;stroke-opacity:1;stop-color:#000000"
               id="rect13467"
               width="33.633736"
               height="10.00629"
               x="46.727943"
               y="142.94168" />
            <rect
               style="font-variation-settings:normal;mix-blend-mode:normal;vector-effect:none;fill:#4d4d4d;fill-opacity:1;fill-rule:evenodd;stroke-width:1.00433;stroke-linecap:butt;stroke-linejoin:miter;stroke-miterlimit:4;stroke-dasharray:none;stroke-dashoffset:0;stroke-opacity:1;stop-color:#000000"
               id="rect13469"
               width="33.633736"
               height="10"
               x="46.727943"
               y="157.41252" />
            <rect
               style="font-variation-settings:normal;mix-blend-mode:normal;vector-effect:none;fill:#4d4d4d;fill-opacity:1;fill-rule:evenodd;stroke-width:1.00433;stroke-linecap:butt;stroke-linejoin:miter;stroke-miterlimit:4;stroke-dasharray:none;stroke-dashoffset:0;stroke-opacity:1;stop-color:#000000"
               id="rect13471"
               width="33.633736"
               height="10"
               x="46.727943"
               y="171.82552" />
            <rect
               style="font-variation-settings:normal;mix-blend-mode:normal;vector-effect:none;fill:#4d4d4d;fill-opacity:1;fill-rule:evenodd;stroke-width:1.00465;stroke-linecap:butt;stroke-linejoin:miter;stroke-miterlimit:4;stroke-dasharray:none;stroke-dashoffset:0;stroke-opacity:1;stop-color:#000000"
               id="rect13473"
               width="33.633736"
               height="10.00629"
               x="46.727943"
               y="184.82036" />
            <rect
               style="font-variation-settings:normal;mix-blend-mode:normal;vector-effect:none;fill:#4d4d4d;fill-opacity:1;fill-rule:evenodd;stroke-width:1.00433;stroke-linecap:butt;stroke-linejoin:miter;stroke-miterlimit:4;stroke-dasharray:none;stroke-dashoffset:0;stroke-opacity:1;stop-color:#000000"
               id="rect13475"
               width="33.633736"
               height="10"
               x="46.727943"
               y="86.087151"
               inkscape:transform-center-x="-0.012129028"
               inkscape:transform-center-y="0.70925526" />
            <rect
               style="font-variation-settings:normal;mix-blend-mode:normal;vector-effect:none;fill:#4d4d4d;fill-opacity:1;fill-rule:evenodd;stroke-width:1.00434;stroke-linecap:butt;stroke-linejoin:miter;stroke-miterlimit:4;stroke-dasharray:none;stroke-dashoffset:0;stroke-opacity:1;stop-color:#000000"
               id="rect13477"
               width="33.633736"
               height="10"
               x="46.727943"
               y="100" />
          </g>
        </g>
      </g>
      <g
         id="g1299"
         transform="translate(-17.286236,-28.499527)">
        <path
           id="path2162"
           style="font-variation-settings:normal;vector-effect:none;fill:#1a1a1a;fill-opacity:1;fill-rule:evenodd;stroke-width:0.914328;stroke-linecap:butt;stroke-linejoin:miter;stroke-miterlimit:4;stroke-dasharray:none;stroke-dashoffset:0;stroke-opacity:1;filter:url(#filter2329);stop-color:#000000"
           d="m 254.53711,183.54297 v 399.83398 h 43.03125 l -20.76172,-17.42187 7.66797,-40.33203 21.37695,-50.12305 -41.97461,-25.72461 12.6836,-31.44727 -19.65821,-57.71874 42.31055,-36.6211 -31.00391,-34.96289 0.56055,-62.60547 78.31641,-19.07031 36.8164,17.57617 26.64258,-8.07812 42.97461,5.99609 50.23242,37.64648 -38.32226,40.89063 30.90625,52.91406 -25.99219,70.6543 33.73047,65.09961 V 183.54297 h -85.82813 a 37.011718,32.630858 0 0 1 -32.50781,17.03125 37.011718,32.630858 0 0 1 -26.61133,-9.95508 37.011718,32.630858 0 0 1 -12.94726,-7.07617 z m 249.53711,346.5957 -14.07617,49.10938 -31.00586,4.1289 h 45.08203 z m -143.14844,39.88477 -51.58789,13.35351 h 103.03125 z"
           transform="matrix(0.25451316,0,0,0.24574362,19.144426,101.25607)" />
        <path
           id="path2138"
           style="font-variation-settings:normal;vector-effect:none;fill:#e6e6e6;fill-opacity:1;fill-rule:evenodd;stroke-width:0.2268;stroke-linecap:butt;stroke-linejoin:miter;stroke-miterlimit:4;stroke-dasharray:none;stroke-dashoffset:0;stroke-opacity:1;stop-color:#000000"
           d="m 81.923733,147.00509 v 98.59512 H 148.9974 v -98.59512 h -25.40757 a 9.4199693,7.8886101 0 0 1 -8.27367,4.11736 9.4199693,7.8886101 0 0 1 -8.27367,-4.11736 z" />
        <rect
           style="font-variation-settings:normal;vector-effect:none;fill:#999999;fill-opacity:1;fill-rule:evenodd;stroke-width:0.285899;stroke-linecap:butt;stroke-linejoin:miter;stroke-miterlimit:4;stroke-dasharray:none;stroke-dashoffset:0;stroke-opacity:1;stop-color:#000000"
           id="rect3470"
           width="4.5034118"
           height="5.4563756"
           x="149.21916"
           y="153.07007" />
        <rect
           style="font-variation-settings:normal;vector-effect:none;fill:#999999;fill-opacity:1;fill-rule:evenodd;stroke-width:0.240873;stroke-linecap:butt;stroke-linejoin:miter;stroke-miterlimit:4;stroke-dasharray:none;stroke-dashoffset:0;stroke-opacity:1;stop-color:#000000"
           id="rect3472"
           width="4.5035067"
           height="7.9234996"
           x="149.21907"
           y="164.24413" />
        <rect
           style="font-variation-settings:normal;vector-effect:none;fill:#999999;fill-opacity:1;fill-rule:evenodd;stroke-width:0.305012;stroke-linecap:butt;stroke-linejoin:miter;stroke-miterlimit:4;stroke-dasharray:none;stroke-dashoffset:0;stroke-opacity:1;stop-color:#000000"
           id="rect3474"
           width="4.5034118"
           height="7.9237494"
           x="149.21916"
           y="177.88316" />
        <rect
           style="font-variation-settings:normal;vector-effect:none;fill:#999999;fill-opacity:1;fill-rule:evenodd;stroke-width:0.262858;stroke-linecap:butt;stroke-linejoin:miter;stroke-miterlimit:4;stroke-dasharray:none;stroke-dashoffset:0;stroke-opacity:1;stop-color:#000000"
           id="rect3513"
           width="4.5034118"
           height="7.9237494"
           x="149.21916"
           y="191.52344" />
        <rect
           style="font-variation-settings:normal;vector-effect:none;fill:#999999;fill-opacity:1;fill-rule:evenodd;stroke-width:0.268399;stroke-linecap:butt;stroke-linejoin:miter;stroke-miterlimit:4;stroke-dasharray:none;stroke-dashoffset:0;stroke-opacity:1;stop-color:#000000"
           id="rect3515"
           width="4.5034118"
           height="7.9237494"
           x="149.21916"
           y="205.16371" />
        <rect
           style="font-variation-settings:normal;vector-effect:none;fill:#999999;fill-opacity:1;fill-rule:evenodd;stroke-width:0.170613;stroke-linecap:butt;stroke-linejoin:miter;stroke-miterlimit:4;stroke-dasharray:none;stroke-dashoffset:0;stroke-opacity:1;stop-color:#000000"
           id="rect3519"
           width="4.5034118"
           height="7.9237494"
           x="149.21916"
           y="218.804" />
        <rect
           style="font-variation-settings:normal;vector-effect:none;fill:#999999;fill-opacity:1;fill-rule:evenodd;stroke-width:0.218655;stroke-linecap:butt;stroke-linejoin:miter;stroke-miterlimit:4;stroke-dasharray:none;stroke-dashoffset:0;stroke-opacity:1;stop-color:#000000"
           id="rect3526"
           width="4.5034118"
           height="5.4566693"
           x="149.21916"
           y="232.44427" />
        <rect
           style="font-variation-settings:normal;vector-effect:none;fill:#999999;fill-opacity:1;fill-rule:evenodd;stroke-width:0.285899;stroke-linecap:butt;stroke-linejoin:miter;stroke-miterlimit:4;stroke-dasharray:none;stroke-dashoffset:0;stroke-opacity:1;stop-color:#000000"
           id="rect3528"
           width="4.5034118"
           height="5.4563756"
           x="77.64283"
           y="153.07007" />
        <rect
           style="font-variation-settings:normal;vector-effect:none;fill:#999999;fill-opacity:1;fill-rule:evenodd;stroke-width:0.240873;stroke-linecap:butt;stroke-linejoin:miter;stroke-miterlimit:4;stroke-dasharray:none;stroke-dashoffset:0;stroke-opacity:1;stop-color:#000000"
           id="rect3530"
           width="4.5035067"
           height="7.9234996"
           x="77.64283"
           y="205.16354" />
        <rect
           style="font-variation-settings:normal;vector-effect:none;fill:#999999;fill-opacity:1;fill-rule:evenodd;stroke-width:0.240873;stroke-linecap:butt;stroke-linejoin:miter;stroke-miterlimit:4;stroke-dasharray:none;stroke-dashoffset:0;stroke-opacity:1;stop-color:#000000"
           id="rect3532"
           width="4.5035067"
           height="7.9234996"
           x="77.64283"
           y="191.52339"
           inkscape:transform-center-x="-5.5637324"
           inkscape:transform-center-y="3.3567833" />
        <rect
           style="font-variation-settings:normal;vector-effect:none;fill:#999999;fill-opacity:1;fill-rule:evenodd;stroke-width:0.240873;stroke-linecap:butt;stroke-linejoin:miter;stroke-miterlimit:4;stroke-dasharray:none;stroke-dashoffset:0;stroke-opacity:1;stop-color:#000000"
           id="rect3534"
           width="4.5035067"
           height="7.9234996"
           x="77.64283"
           y="177.88324" />
        <rect
           style="font-variation-settings:normal;vector-effect:none;fill:#999999;fill-opacity:1;fill-rule:evenodd;stroke-width:0.240873;stroke-linecap:butt;stroke-linejoin:miter;stroke-miterlimit:4;stroke-dasharray:none;stroke-dashoffset:0;stroke-opacity:1;stop-color:#000000"
           id="rect3536"
           width="4.5035067"
           height="7.9234996"
           x="77.64283"
           y="164.2438" />
        <rect
           style="font-variation-settings:normal;vector-effect:none;fill:#999999;fill-opacity:1;fill-rule:evenodd;stroke-width:0.240873;stroke-linecap:butt;stroke-linejoin:miter;stroke-miterlimit:4;stroke-dasharray:none;stroke-dashoffset:0;stroke-opacity:1;stop-color:#000000"
           id="rect3538"
           width="4.5035067"
           height="7.9234996"
           x="77.64283"
           y="218.8037" />
        <rect
           style="font-variation-settings:normal;vector-effect:none;fill:#999999;fill-opacity:1;fill-rule:evenodd;stroke-width:0.199891;stroke-linecap:butt;stroke-linejoin:miter;stroke-miterlimit:4;stroke-dasharray:none;stroke-dashoffset:0;stroke-opacity:1;stop-color:#000000"
           id="rect3540"
           width="4.5035067"
           height="5.4566693"
           x="77.64283"
           y="232.44385" />
        <path
           id="rect1532"
           style="font-variation-settings:normal;vector-effect:none;fill:#000000;fill-opacity:1;fill-rule:evenodd;stroke-width:0.228664;stroke-linecap:butt;stroke-linejoin:miter;stroke-miterlimit:4;stroke-dasharray:none;stroke-dashoffset:0;stroke-opacity:1;stop-color:#000000"
           d="m 82.145875,145.37761 v 100.2226 h 67.073665 v -100.2226 h -25.40757 a 9.4199693,8.0188251 0 0 1 -8.27367,4.18532 9.4199693,8.0188251 0 0 1 -8.27367,-4.18532 z m 23.554895,5.85033 9.37026,4.31923 6.78089,-1.98514 10.9376,1.4735 12.78481,9.25138 -9.75352,10.04861 7.86605,13.00329 -6.61535,17.36284 10.46784,19.50686 -5.46556,18.4111 -15.73409,2.02306 -17.1165,-4.28996 -15.418933,3.85367 -5.990504,-4.85344 1.951599,-9.91134 5.440715,-12.31741 -10.68309,-6.32167 3.228143,-7.72796 -5.003274,-14.18401 10.768592,-8.9994 -7.890903,-8.59191 0.142668,-15.38489 z" />
        <ellipse
           style="fill:#ffffff;fill-rule:evenodd;stroke:none;stroke-width:0.301038;stroke-linejoin:miter;stroke-miterlimit:4;stroke-dasharray:7.2249, 0.301038;stroke-dashoffset:0;stroke-opacity:0.931801"
           id="path1342"
           cx="87.680397"
           cy="150.68765"
           rx="2.2262018"
           ry="2.0962896" />
        <g
           id="g3801"
           style="filter:url(#filter5011)"
           transform="matrix(0.96193951,0,0,0.92879478,11.686675,101.97862)">
          <path
             id="path3793"
             style="fill:#97eeff;fill-opacity:1;fill-rule:evenodd;stroke:#000000;stroke-width:0.357332;stroke-miterlimit:4;stroke-dasharray:none;stroke-opacity:0.931801"
             d="m 99.087445,65.205259 -11.153429,0.109169 0.07299,5.910204 6.64e-4,-1.1e-5 a 5.9565608,5.5765576 88.250719 0 0 -1.08e-4,0.04677 5.9565608,5.5765576 88.250719 0 0 5.649934,5.900898 5.9565608,5.5765576 88.250719 0 0 5.503492,-6.010088 5.9565608,5.5765576 88.250719 0 0 -0.0011,-0.04646 l 6.52e-4,-10e-7 z M 94.262042,77.9789 a 0.6149938,0.59425638 87.223575 0 0 -0.601431,-0.609351 0.6149938,0.59425638 87.223575 0 0 -0.586807,0.621046 0.6149938,0.59425638 87.223575 0 0 0.602099,0.609314 0.6149938,0.59425638 87.223575 0 0 0.586302,-0.620865 z" />
          <path
             style="fill:none;stroke:#000000;stroke-width:0.264583px;stroke-linecap:butt;stroke-linejoin:miter;stroke-opacity:1"
             d="M 72.939064,72.033184 H 83.348182 V 61.380982 h 7.657717 v 3.724159"
             id="path3795" />
          <path
             style="fill:none;stroke:#000000;stroke-width:0.264583px;stroke-linecap:butt;stroke-linejoin:miter;stroke-opacity:1"
             d="m 73.057246,58.578257 h 23.461591 v 6.508964"
             id="path3797" />
          <path
             style="fill:none;stroke:#000000;stroke-width:0.264017px;stroke-linecap:butt;stroke-linejoin:miter;stroke-opacity:1"
             d="M 73.013146,86.59234 H 93.670722 V 78.756676"
             id="path3799" />
        </g>
        <g
           id="g5033"
           style="filter:url(#filter5267)"
           transform="matrix(0.96193951,0,0,0.92879478,11.983366,101.17864)">
          <path
             id="path5025"
             style="fill:#97eeff;fill-opacity:1;fill-rule:evenodd;stroke:#000000;stroke-width:0.357332;stroke-miterlimit:4;stroke-dasharray:none;stroke-opacity:0.931801"
             d="m 99.450686,117.68829 -11.153429,-0.10917 0.07299,-5.9102 6.64e-4,1e-5 a 5.5765576,5.9565608 1.749281 0 1 -1.08e-4,-0.0468 5.5765576,5.9565608 1.749281 0 1 5.649934,-5.9009 5.5765576,5.9565608 1.749281 0 1 5.503492,6.01009 5.5765576,5.9565608 1.749281 0 1 -0.0011,0.0465 h 6.52e-4 z m -4.825403,-12.77364 a 0.59425638,0.6149938 2.776425 0 1 -0.601431,0.60935 0.59425638,0.6149938 2.776425 0 1 -0.586807,-0.62104 0.59425638,0.6149938 2.776425 0 1 0.602099,-0.60932 0.59425638,0.6149938 2.776425 0 1 0.586302,0.62087 z" />
          <path
             style="fill:none;stroke:#000000;stroke-width:0.265;stroke-linecap:butt;stroke-linejoin:miter;stroke-miterlimit:4;stroke-dasharray:none;stroke-opacity:1"
             d="m 73.013146,102.2151 h 21.025895 v 1.89984"
             id="path5027" />
          <path
             style="fill:none;stroke:#000000;stroke-width:0.264583px;stroke-linecap:butt;stroke-linejoin:miter;stroke-opacity:1"
             d="m 73.022835,115.73119 h 11.947146 v 5.75728 h 6.924038 v -3.86766"
             id="path5029" />
          <path
             style="fill:none;stroke:#000000;stroke-width:0.264583px;stroke-linecap:butt;stroke-linejoin:miter;stroke-opacity:1"
             d="M 73.163331,130.63964 H 96.986166 V 117.76736"
             id="path5031" />
        </g>
        <g
           id="g5279"
           transform="matrix(-0.96193951,0,0,0.92879478,219.45339,114.62883)"
           style="filter:url(#filter5285)">
          <path
             id="path5271"
             style="fill:#97eeff;fill-opacity:1;fill-rule:evenodd;stroke:#000000;stroke-width:0.357332;stroke-miterlimit:4;stroke-dasharray:none;stroke-opacity:0.931801"
             d="m 99.450686,117.68829 -11.153429,-0.10917 0.07299,-5.9102 6.64e-4,1e-5 a 5.5765576,5.9565608 1.749281 0 1 -1.08e-4,-0.0468 5.5765576,5.9565608 1.749281 0 1 5.649934,-5.9009 5.5765576,5.9565608 1.749281 0 1 5.503492,6.01009 5.5765576,5.9565608 1.749281 0 1 -0.0011,0.0465 h 6.52e-4 z m -4.825403,-12.77364 a 0.59425638,0.6149938 2.776425 0 1 -0.601431,0.60935 0.59425638,0.6149938 2.776425 0 1 -0.586807,-0.62104 0.59425638,0.6149938 2.776425 0 1 0.602099,-0.60932 0.59425638,0.6149938 2.776425 0 1 0.586302,0.62087 z" />
          <path
             style="fill:none;stroke:#000000;stroke-width:0.265;stroke-linecap:butt;stroke-linejoin:miter;stroke-miterlimit:4;stroke-dasharray:none;stroke-opacity:1"
             d="m 73.013146,102.2151 h 21.025895 v 1.89984"
             id="path5273" />
          <path
             style="fill:none;stroke:#000000;stroke-width:0.264583px;stroke-linecap:butt;stroke-linejoin:miter;stroke-opacity:1"
             d="m 73.022835,115.73119 h 11.947146 v 5.75728 h 6.924038 v -3.86766"
             id="path5275" />
          <path
             style="fill:none;stroke:#000000;stroke-width:0.264583px;stroke-linecap:butt;stroke-linejoin:miter;stroke-opacity:1"
             d="M 73.163331,130.63964 H 96.986166 V 117.76736"
             id="path5277" />
        </g>
        <g
           id="g5297"
           transform="matrix(-0.96193951,0,0,0.92879478,219.45331,73.392096)"
           style="filter:url(#filter5303)">
          <path
             id="path5289"
             style="fill:#97eeff;fill-opacity:1;fill-rule:evenodd;stroke:#000000;stroke-width:0.357332;stroke-miterlimit:4;stroke-dasharray:none;stroke-opacity:0.931801"
             d="m 99.450686,117.68829 -11.153429,-0.10917 0.07299,-5.9102 6.64e-4,1e-5 a 5.5765576,5.9565608 1.749281 0 1 -1.08e-4,-0.0468 5.5765576,5.9565608 1.749281 0 1 5.649934,-5.9009 5.5765576,5.9565608 1.749281 0 1 5.503492,6.01009 5.5765576,5.9565608 1.749281 0 1 -0.0011,0.0465 h 6.52e-4 z m -4.825403,-12.77364 a 0.59425638,0.6149938 2.776425 0 1 -0.601431,0.60935 0.59425638,0.6149938 2.776425 0 1 -0.586807,-0.62104 0.59425638,0.6149938 2.776425 0 1 0.602099,-0.60932 0.59425638,0.6149938 2.776425 0 1 0.586302,0.62087 z" />
          <path
             style="fill:none;stroke:#000000;stroke-width:0.265;stroke-linecap:butt;stroke-linejoin:miter;stroke-miterlimit:4;stroke-dasharray:none;stroke-opacity:1"
             d="m 73.013146,102.2151 h 21.025895 v 1.89984"
             id="path5291" />
          <path
             style="fill:none;stroke:#000000;stroke-width:0.264583px;stroke-linecap:butt;stroke-linejoin:miter;stroke-opacity:1"
             d="m 73.022835,115.73119 h 11.947146 v 5.75728 h 6.924038 v -3.86766"
             id="path5293" />
          <path
             style="fill:none;stroke:#000000;stroke-width:0.264583px;stroke-linecap:butt;stroke-linejoin:miter;stroke-opacity:1"
             d="M 73.163331,130.63964 H 96.986166 V 117.76736"
             id="path5295" />
        </g>
        <g
           id="g1236">
          <g
             id="g2253"
             transform="matrix(0.96193951,0,0,0.92879478,11.68624,101.97781)">
            <path
               id="path970"
               style="fill:#97eeff;fill-opacity:1;fill-rule:evenodd;stroke:#000000;stroke-width:0.357332;stroke-miterlimit:4;stroke-dasharray:none;stroke-opacity:0.931801"
               d="m 99.087445,65.205259 -11.153429,0.109169 0.07299,5.910204 6.64e-4,-1.1e-5 a 5.9565608,5.5765576 88.250719 0 0 -1.08e-4,0.04677 5.9565608,5.5765576 88.250719 0 0 5.649934,5.900898 5.9565608,5.5765576 88.250719 0 0 5.503492,-6.010088 5.9565608,5.5765576 88.250719 0 0 -0.0011,-0.04646 l 6.52e-4,-10e-7 z M 94.262042,77.9789 a 0.6149938,0.59425638 87.223575 0 0 -0.601431,-0.609351 0.6149938,0.59425638 87.223575 0 0 -0.586807,0.621046 0.6149938,0.59425638 87.223575 0 0 0.602099,0.609314 0.6149938,0.59425638 87.223575 0 0 0.586302,-0.620865 z" />
            <path
               style="fill:none;stroke:#000000;stroke-width:0.264583px;stroke-linecap:butt;stroke-linejoin:miter;stroke-opacity:1"
               d="M 72.939064,72.033184 H 83.348182 V 61.380982 h 7.657717 v 3.724159"
               id="path2199" />
            <path
               style="fill:none;stroke:#000000;stroke-width:0.264583px;stroke-linecap:butt;stroke-linejoin:miter;stroke-opacity:1"
               d="m 73.057246,58.578257 h 23.461591 v 6.508964"
               id="path2195" />
            <path
               style="fill:none;stroke:#000000;stroke-width:0.264017px;stroke-linecap:butt;stroke-linejoin:miter;stroke-opacity:1"
               d="M 73.013146,86.59234 H 93.670722 V 78.756676"
               id="path2203" />
          </g>
          <g
             id="g2259"
             transform="matrix(0.96193951,0,0,0.92879478,11.983366,101.17864)">
            <path
               id="path2211"
               style="fill:#97eeff;fill-opacity:1;fill-rule:evenodd;stroke:#000000;stroke-width:0.357332;stroke-miterlimit:4;stroke-dasharray:none;stroke-opacity:0.931801"
               d="m 99.450686,117.68829 -11.153429,-0.10917 0.07299,-5.9102 6.64e-4,1e-5 a 5.5765576,5.9565608 1.749281 0 1 -1.08e-4,-0.0468 5.5765576,5.9565608 1.749281 0 1 5.649934,-5.9009 5.5765576,5.9565608 1.749281 0 1 5.503492,6.01009 5.5765576,5.9565608 1.749281 0 1 -0.0011,0.0465 h 6.52e-4 z m -4.825403,-12.77364 a 0.59425638,0.6149938 2.776425 0 1 -0.601431,0.60935 0.59425638,0.6149938 2.776425 0 1 -0.586807,-0.62104 0.59425638,0.6149938 2.776425 0 1 0.602099,-0.60932 0.59425638,0.6149938 2.776425 0 1 0.586302,0.62087 z" />
            <path
               style="fill:none;stroke:#000000;stroke-width:0.265;stroke-linecap:butt;stroke-linejoin:miter;stroke-miterlimit:4;stroke-dasharray:none;stroke-opacity:1"
               d="m 73.013146,102.2151 h 21.025895 v 1.89984"
               id="path2217" />
            <path
               style="fill:none;stroke:#000000;stroke-width:0.264583px;stroke-linecap:butt;stroke-linejoin:miter;stroke-opacity:1"
               d="m 73.022835,115.73119 h 11.947146 v 5.75728 h 6.924038 v -3.86766"
               id="path2241" />
            <path
               style="fill:none;stroke:#000000;stroke-width:0.264583px;stroke-linecap:butt;stroke-linejoin:miter;stroke-opacity:1"
               d="M 73.163331,130.63964 H 96.986166 V 117.76736"
               id="path2243" />
          </g>
          <g
             id="g2279"
             transform="matrix(-0.96193951,0,0,0.92879478,219.45339,114.62883)">
            <path
               id="path2271"
               style="fill:#97eeff;fill-opacity:1;fill-rule:evenodd;stroke:#000000;stroke-width:0.357332;stroke-miterlimit:4;stroke-dasharray:none;stroke-opacity:0.931801"
               d="m 99.450686,117.68829 -11.153429,-0.10917 0.07299,-5.9102 6.64e-4,1e-5 a 5.5765576,5.9565608 1.749281 0 1 -1.08e-4,-0.0468 5.5765576,5.9565608 1.749281 0 1 5.649934,-5.9009 5.5765576,5.9565608 1.749281 0 1 5.503492,6.01009 5.5765576,5.9565608 1.749281 0 1 -0.0011,0.0465 h 6.52e-4 z m -4.825403,-12.77364 a 0.59425638,0.6149938 2.776425 0 1 -0.601431,0.60935 0.59425638,0.6149938 2.776425 0 1 -0.586807,-0.62104 0.59425638,0.6149938 2.776425 0 1 0.602099,-0.60932 0.59425638,0.6149938 2.776425 0 1 0.586302,0.62087 z" />
            <path
               style="fill:none;stroke:#000000;stroke-width:0.265;stroke-linecap:butt;stroke-linejoin:miter;stroke-miterlimit:4;stroke-dasharray:none;stroke-opacity:1"
               d="m 73.013146,102.2151 h 21.025895 v 1.89984"
               id="path2273" />
            <path
               style="fill:none;stroke:#000000;stroke-width:0.264583px;stroke-linecap:butt;stroke-linejoin:miter;stroke-opacity:1"
               d="m 73.022835,115.73119 h 11.947146 v 5.75728 h 6.924038 v -3.86766"
               id="path2275" />
            <path
               style="fill:none;stroke:#000000;stroke-width:0.264583px;stroke-linecap:butt;stroke-linejoin:miter;stroke-opacity:1"
               d="M 73.163331,130.63964 H 96.986166 V 117.76736"
               id="path2277" />
          </g>
          <g
             id="g2289"
             transform="matrix(-0.96193951,0,0,0.92879478,219.45331,73.392096)">
            <path
               id="path2281"
               style="fill:#97eeff;fill-opacity:1;fill-rule:evenodd;stroke:#000000;stroke-width:0.357332;stroke-miterlimit:4;stroke-dasharray:none;stroke-opacity:0.931801"
               d="m 99.450686,117.68829 -11.153429,-0.10917 0.07299,-5.9102 6.64e-4,1e-5 a 5.5765576,5.9565608 1.749281 0 1 -1.08e-4,-0.0468 5.5765576,5.9565608 1.749281 0 1 5.649934,-5.9009 5.5765576,5.9565608 1.749281 0 1 5.503492,6.01009 5.5765576,5.9565608 1.749281 0 1 -0.0011,0.0465 h 6.52e-4 z m -4.825403,-12.77364 a 0.59425638,0.6149938 2.776425 0 1 -0.601431,0.60935 0.59425638,0.6149938 2.776425 0 1 -0.586807,-0.62104 0.59425638,0.6149938 2.776425 0 1 0.602099,-0.60932 0.59425638,0.6149938 2.776425 0 1 0.586302,0.62087 z" />
            <path
               style="fill:none;stroke:#000000;stroke-width:0.265;stroke-linecap:butt;stroke-linejoin:miter;stroke-miterlimit:4;stroke-dasharray:none;stroke-opacity:1"
               d="m 73.013146,102.2151 h 21.025895 v 1.89984"
               id="path2283" />
            <path
               style="fill:none;stroke:#000000;stroke-width:0.264583px;stroke-linecap:butt;stroke-linejoin:miter;stroke-opacity:1"
               d="m 73.022835,115.73119 h 11.947146 v 5.75728 h 6.924038 v -3.86766"
               id="path2285" />
            <path
               style="fill:none;stroke:#000000;stroke-width:0.264583px;stroke-linecap:butt;stroke-linejoin:miter;stroke-opacity:1"
               d="M 73.163331,130.63964 H 96.986166 V 117.76736"
               id="path2287" />
          </g>
        </g>
        <text
           xml:space="preserve"
           style="font-style:normal;font-variant:normal;font-weight:normal;font-stretch:normal;font-size:11.6593px;line-height:1.55;font-family:'times new roman';-inkscape-font-specification:'times new roman, ';fill:#000000;fill-opacity:1;stroke:none;stroke-width:0.291483"
           x="-209.79964"
           y="122.5141"
           id="text5309"
           transform="matrix(0,-1.0223829,0.97810717,0,0,0)"><tspan
             sodipodi:role="line"
             id="tspan5307"
             x="-209.79964"
             y="122.5141"
             style="font-style:normal;font-variant:normal;font-weight:normal;font-stretch:normal;font-family:'times new roman';-inkscape-font-specification:'times new roman, ';stroke-width:0.291483">IC 7400</tspan></text>
      </g>
    </g>
    <text
       xml:space="preserve"
       style="font-size:10.5833px;line-height:1.25;font-family:'times new roman';-inkscape-font-specification:'times new roman, ';stroke-width:0.264583"
       x="286.1174"
       y="163.64485"
       id="text1185"><tspan
         sodipodi:role="line"
         id="tspan1183"
         x="286.1174"
         y="163.64485"
         style="stroke-width:0.264583" /></text>
  </g>
</svg>
