<?xml version="1.0" encoding="UTF-8" standalone="no"?>
<svg
   xmlns:osb="http://www.openswatchbook.org/uri/2009/osb"
   xmlns:dc="http://purl.org/dc/elements/1.1/"
   xmlns:cc="http://creativecommons.org/ns#"
   xmlns:rdf="http://www.w3.org/1999/02/22-rdf-syntax-ns#"
   xmlns:svg="http://www.w3.org/2000/svg"
   xmlns="http://www.w3.org/2000/svg"
   xmlns:sodipodi="http://sodipodi.sourceforge.net/DTD/sodipodi-0.dtd"
   xmlns:inkscape="http://www.inkscape.org/namespaces/inkscape"
   width="210mm"
   height="297mm"
   viewBox="0 0 210 297"
   version="1.1"
   id="svg861"
   inkscape:version="1.0.2 (e86c870879, 2021-01-15)"
   sodipodi:docname="7408.svg">
  <defs
     id="defs855">
    <marker
       style="overflow:visible"
       id="marker1280"
       refX="0.0"
       refY="0.0"
       orient="auto"
       inkscape:stockid="Arrow1Lstart"
       inkscape:isstock="true">
      <path
         transform="scale(0.8) translate(12.5,0)"
         style="fill-rule:evenodd;stroke:#000000;stroke-width:1pt;stroke-opacity:0.931801;fill:#ffffff;fill-opacity:1"
         d="M 0.0,0.0 L 5.0,-5.0 L -12.5,0.0 L 5.0,5.0 L 0.0,0.0 z "
         id="path1278" />
    </marker>
    <marker
       style="overflow:visible"
       id="marker1258"
       refX="0.0"
       refY="0.0"
       orient="auto"
       inkscape:stockid="Arrow1Lstart"
       inkscape:isstock="true">
      <path
         transform="scale(0.8) translate(12.5,0)"
         style="fill-rule:evenodd;stroke:#000000;stroke-width:1pt;stroke-opacity:0.931801;fill:#ffffff;fill-opacity:1"
         d="M 0.0,0.0 L 5.0,-5.0 L -12.5,0.0 L 5.0,5.0 L 0.0,0.0 z "
         id="path1256" />
    </marker>
    <marker
       style="overflow:visible"
       id="Arrow1Lstart"
       refX="0.0"
       refY="0.0"
       orient="auto"
       inkscape:stockid="Arrow1Lstart"
       inkscape:isstock="true">
      <path
         transform="scale(0.8) translate(12.5,0)"
         style="fill-rule:evenodd;stroke:#000000;stroke-width:1pt;stroke-opacity:0.931801;fill:#ffffff;fill-opacity:1"
         d="M 0.0,0.0 L 5.0,-5.0 L -12.5,0.0 L 5.0,5.0 L 0.0,0.0 z "
         id="path980" />
    </marker>
    <linearGradient
       id="linearGradient3505"
       osb:paint="gradient">
      <stop
         style="stop-color:#4d4d4d;stop-opacity:1;"
         offset="0"
         id="stop3501" />
      <stop
         style="stop-color:#4d4d4d;stop-opacity:0;"
         offset="1"
         id="stop3503" />
    </linearGradient>
    <linearGradient
       id="linearGradient3481"
       osb:paint="solid">
      <stop
         style="stop-color:#4d4d4d;stop-opacity:1;"
         offset="0"
         id="stop3479" />
    </linearGradient>
    <linearGradient
       id="linearGradient3464"
       osb:paint="solid">
      <stop
         style="stop-color:#fcfff6;stop-opacity:0.21176472;"
         offset="0"
         id="stop3462" />
    </linearGradient>
    <linearGradient
       id="linearGradient1458"
       osb:paint="solid">
      <stop
         style="stop-color:#001919;stop-opacity:0.46894056;"
         offset="0"
         id="stop1456" />
    </linearGradient>
    <linearGradient
       id="linearGradient1444"
       osb:paint="solid">
      <stop
         style="stop-color:#171816;stop-opacity:1;"
         offset="0"
         id="stop1442" />
    </linearGradient>
    <linearGradient
       id="linearGradient1438"
       osb:paint="solid">
      <stop
         style="stop-color:#010101;stop-opacity:0.36078432;"
         offset="0"
         id="stop1436" />
    </linearGradient>
    <filter
       inkscape:collect="always"
       style="color-interpolation-filters:sRGB"
       id="filter2329"
       x="-0.096052341"
       width="1.1921047"
       y="-0.05994644"
       height="1.1198929">
      <feGaussianBlur
         inkscape:collect="always"
         stdDeviation="9.9869265"
         id="feGaussianBlur2331" />
    </filter>
    <filter
       inkscape:collect="always"
       style="color-interpolation-filters:sRGB"
       id="filter17363"
       x="-0.071042253"
       width="1.1420845"
       y="-0.066217724"
       height="1.1324354">
      <feGaussianBlur
         inkscape:collect="always"
         stdDeviation="0.7768497"
         id="feGaussianBlur17365" />
    </filter>
    <filter
       inkscape:collect="always"
       style="color-interpolation-filters:sRGB"
       id="filter4405"
       x="-0.091147304"
       width="1.1822946"
       y="-0.032590866"
       height="1.0651817">
      <feGaussianBlur
         inkscape:collect="always"
         stdDeviation="2.03081"
         id="feGaussianBlur4407" />
    </filter>
  </defs>
  <sodipodi:namedview
     id="base"
     pagecolor="#ffffff"
     bordercolor="#666666"
     borderopacity="1.0"
     inkscape:pageopacity="0.0"
     inkscape:pageshadow="2"
     inkscape:zoom="0.64"
     inkscape:cx="280.02494"
     inkscape:cy="495.41225"
     inkscape:document-units="mm"
     inkscape:current-layer="layer1"
     inkscape:document-rotation="0"
     showgrid="false"
     inkscape:snap-global="true"
     inkscape:lockguides="true"
     inkscape:window-width="1920"
     inkscape:window-height="1043"
     inkscape:window-x="0"
     inkscape:window-y="0"
     inkscape:window-maximized="1"
     inkscape:object-nodes="false"
     inkscape:snap-bbox="true"
     inkscape:bbox-nodes="true"
     inkscape:snap-bbox-midpoints="true"
     inkscape:bbox-paths="true"
     inkscape:snap-object-midpoints="true"
     inkscape:snap-center="true"
     inkscape:snap-bbox-edge-midpoints="true" />
  <metadata
     id="metadata858">
    <rdf:RDF>
      <cc:Work
         rdf:about="">
        <dc:format>image/svg+xml</dc:format>
        <dc:type
           rdf:resource="http://purl.org/dc/dcmitype/StillImage" />
        <dc:title />
      </cc:Work>
    </rdf:RDF>
  </metadata>
  <g
     inkscape:label="Layer 1"
     inkscape:groupmode="layer"
     id="layer1">
    <path
       id="path3788"
       style="fill:#ffffff;stroke:#000000;stroke-width:0.150554px;stroke-linecap:butt;stroke-linejoin:miter;stroke-opacity:1"
       d="m 72.121656,-19.777899 c 4.009025,4.617235 0.07862,9.524152 0.05848,9.550184 10.609898,-2.680274 13.801166,-5.830883 -0.05848,-9.550184 z" />
    <path
       id="path3792"
       style="fill:#ffffff;stroke:#000000;stroke-width:0.138234px;stroke-linecap:butt;stroke-linejoin:miter;stroke-opacity:1"
       d="m 91.142141,-19.830545 c 3.564699,4.377671 0.0701,9.030065 0.05219,9.054745 9.433989,-2.541209 12.271369,-5.528424 -0.05219,-9.054745 z m 8.782927,4.080372 a 0.44203921,0.44203918 0 0 0 -0.438216,0.442349 0.44203921,0.44203918 0 0 0 0.44235,0.441836 0.44203921,0.44203918 0 0 0 0.441838,-0.441836 0.44203921,0.44203918 0 0 0 -0.441838,-0.442349 0.44203921,0.44203918 0 0 0 -0.0041,0 z" />
    <path
       id="path3798"
       style="fill:#ffffff;fill-opacity:1;fill-rule:evenodd;stroke:#000000;stroke-width:0.298343;stroke-miterlimit:4;stroke-dasharray:none;stroke-opacity:0.931801"
       d="m 33.286854,-19.352078 0.261782,8.843101 5.193763,-0.107206 -2.5e-5,-5.26e-4 a 5.235616,4.4226483 0.09640193 0 0 0.04106,-3.21e-4 5.235616,4.4226483 0.09640193 0 0 5.102668,-4.529317 5.235616,4.4226483 0.09640193 0 0 -5.36446,-4.313781 5.235616,4.4226483 0.09640193 0 0 -0.04083,0.0013 l -1.3e-5,-5.15e-4 z m 11.299291,3.719642 a 0.54056111,0.47128998 0.44479704 0 0 -0.526648,0.481984 0.54056111,0.47128998 0.44479704 0 0 0.554595,0.460126 0.54056111,0.47128998 0.44479704 0 0 0.526622,-0.4825 0.54056111,0.47128998 0.44479704 0 0 -0.554431,-0.459723 z" />
    <path
       id="path3807"
       style="fill:none;stroke:#000000;stroke-width:0.151;stroke-linecap:butt;stroke-linejoin:miter;stroke-miterlimit:4;stroke-dasharray:none;stroke-opacity:1"
       d="m 10.494031,-19.452871 c 3.095011,3.13915 2.82588,6.30425 0.09293,9.4883603 m 1.637048,-9.3531003 c 4.009025,4.61724 0.07862,9.5241603 0.05848,9.5501903 10.609898,-2.6802803 13.801166,-5.8308903 -0.05848,-9.5501903 z" />
    <text
       xml:space="preserve"
       style="font-style:normal;font-variant:normal;font-weight:normal;font-stretch:normal;font-size:12.2591px;line-height:1.55;font-family:'times new roman';-inkscape-font-specification:'times new roman, ';fill:#000000;fill-opacity:1;stroke:none;stroke-width:0.306478"
       x="-117.10243"
       y="116.57614"
       id="text5309"
       transform="matrix(0,-1.0340645,0.96705766,0,0,0)"><tspan
         sodipodi:role="line"
         id="tspan5307"
         x="-117.10243"
         y="116.57614"
         style="font-style:normal;font-variant:normal;font-weight:normal;font-stretch:normal;font-family:'times new roman';-inkscape-font-specification:'times new roman, ';stroke-width:0.306478" /></text>
    <g
       id="g1289"
       transform="matrix(0.96193951,0,0,0.92879478,19.122918,84.581638)">
      <g
         id="g5335"
         transform="translate(-4.1061002,-28.563048)">
        <rect
           style="font-variation-settings:normal;vector-effect:none;fill:#1eadc9;fill-opacity:1;fill-rule:evenodd;stroke-width:0.286762;stroke-linecap:butt;stroke-linejoin:miter;stroke-miterlimit:4;stroke-dasharray:none;stroke-dashoffset:0;stroke-opacity:1;stop-color:#000000"
           id="rect1229"
           width="141.47256"
           height="233.88893"
           x="30.582783"
           y="22.279009"
           rx="10.052577"
           ry="11.685371" />
        <path
           id="rect983"
           style="font-variation-settings:normal;vector-effect:none;fill:#0052af;fill-opacity:1;fill-rule:evenodd;stroke-width:0.264583;stroke-linecap:butt;stroke-linejoin:miter;stroke-miterlimit:4;stroke-dasharray:none;stroke-dashoffset:0;stroke-opacity:1;stop-color:#000000"
           d="M 3.8500471,-61.447968 V 40.307064 c 0,8.309998 6.6901199,15.000117 15.0001189,15.000117 H 30.582783 V 47.806865 H 18.850166 c -4.155001,0 -7.499803,-3.344801 -7.499803,-7.499801 V -61.447968 Z" />
        <rect
           style="font-variation-settings:normal;vector-effect:none;fill:#72b3c7;fill-opacity:1;fill-rule:evenodd;stroke:none;stroke-width:0.289398;stroke-linecap:butt;stroke-linejoin:miter;stroke-miterlimit:4;stroke-dasharray:none;stroke-dashoffset:0;stroke-opacity:1;stop-color:#000000"
           id="rect998"
           width="34.45649"
           height="49.977802"
           x="-9.8687735"
           y="-61.447971"
           rx="14.999997"
           ry="17.945637" />
      </g>
      <g
         id="g13767"
         transform="translate(-4.1061002,-28.563048)">
        <g
           id="g13459">
          <rect
             style="font-variation-settings:normal;opacity:0.618167;vector-effect:none;fill:#008383;fill-opacity:1;fill-rule:evenodd;stroke-width:0.315244;stroke-linecap:butt;stroke-linejoin:miter;stroke-miterlimit:4;stroke-dasharray:none;stroke-dashoffset:0;stroke-opacity:1;filter:url(#filter4405);stop-color:#000000"
             id="rect9731"
             width="53.473263"
             height="149.54938"
             x="36.808178"
             y="69.777313" />
          <g
             id="g13447">
            <rect
               style="font-variation-settings:normal;mix-blend-mode:normal;vector-effect:none;fill:#4d4d4d;fill-opacity:1;fill-rule:evenodd;stroke-width:1.00433;stroke-linecap:butt;stroke-linejoin:miter;stroke-miterlimit:4;stroke-dasharray:none;stroke-dashoffset:0;stroke-opacity:1;stop-color:#000000"
               id="rect9733"
               width="33.633736"
               height="10"
               x="46.565479"
               y="113.75728"
               inkscape:transform-center-x="-0.012129028"
               inkscape:transform-center-y="0.70925526" />
            <rect
               style="font-variation-settings:normal;mix-blend-mode:normal;vector-effect:none;fill:#4d4d4d;fill-opacity:1;fill-rule:evenodd;stroke-width:1.00433;stroke-linecap:butt;stroke-linejoin:miter;stroke-miterlimit:4;stroke-dasharray:none;stroke-dashoffset:0;stroke-opacity:1;stop-color:#000000"
               id="rect9735"
               width="33.633736"
               height="10"
               x="46.727943"
               y="128.47084" />
            <rect
               style="font-variation-settings:normal;mix-blend-mode:normal;vector-effect:none;fill:#4d4d4d;fill-opacity:1;fill-rule:evenodd;stroke-width:1.00465;stroke-linecap:butt;stroke-linejoin:miter;stroke-miterlimit:4;stroke-dasharray:none;stroke-dashoffset:0;stroke-opacity:1;stop-color:#000000"
               id="rect9737"
               width="33.633736"
               height="10.00629"
               x="46.727943"
               y="142.94168" />
            <rect
               style="font-variation-settings:normal;mix-blend-mode:normal;vector-effect:none;fill:#4d4d4d;fill-opacity:1;fill-rule:evenodd;stroke-width:1.00433;stroke-linecap:butt;stroke-linejoin:miter;stroke-miterlimit:4;stroke-dasharray:none;stroke-dashoffset:0;stroke-opacity:1;stop-color:#000000"
               id="rect9739"
               width="33.633736"
               height="10"
               x="46.727943"
               y="157.41252" />
            <rect
               style="font-variation-settings:normal;mix-blend-mode:normal;vector-effect:none;fill:#4d4d4d;fill-opacity:1;fill-rule:evenodd;stroke-width:1.00433;stroke-linecap:butt;stroke-linejoin:miter;stroke-miterlimit:4;stroke-dasharray:none;stroke-dashoffset:0;stroke-opacity:1;stop-color:#000000"
               id="rect9741"
               width="33.633736"
               height="10"
               x="46.727943"
               y="171.82552" />
            <rect
               style="font-variation-settings:normal;mix-blend-mode:normal;vector-effect:none;fill:#4d4d4d;fill-opacity:1;fill-rule:evenodd;stroke-width:1.00465;stroke-linecap:butt;stroke-linejoin:miter;stroke-miterlimit:4;stroke-dasharray:none;stroke-dashoffset:0;stroke-opacity:1;stop-color:#000000"
               id="rect9743"
               width="33.633736"
               height="10.00629"
               x="46.727943"
               y="184.82036" />
            <rect
               style="font-variation-settings:normal;mix-blend-mode:normal;vector-effect:none;fill:#4d4d4d;fill-opacity:1;fill-rule:evenodd;stroke-width:1.00433;stroke-linecap:butt;stroke-linejoin:miter;stroke-miterlimit:4;stroke-dasharray:none;stroke-dashoffset:0;stroke-opacity:1;stop-color:#000000"
               id="rect9745"
               width="33.633736"
               height="10"
               x="46.727943"
               y="86.087151"
               inkscape:transform-center-x="-0.012129028"
               inkscape:transform-center-y="0.70925526" />
            <rect
               style="font-variation-settings:normal;mix-blend-mode:normal;vector-effect:none;fill:#4d4d4d;fill-opacity:1;fill-rule:evenodd;stroke-width:1.00434;stroke-linecap:butt;stroke-linejoin:miter;stroke-miterlimit:4;stroke-dasharray:none;stroke-dashoffset:0;stroke-opacity:1;stop-color:#000000"
               id="rect9747"
               width="33.633736"
               height="10"
               x="46.727943"
               y="100" />
          </g>
        </g>
        <g
           id="g13481"
           transform="translate(73.554207)">
          <rect
             style="font-variation-settings:normal;opacity:0.618167;vector-effect:none;fill:#008383;fill-opacity:1;fill-rule:evenodd;stroke-width:0.315244;stroke-linecap:butt;stroke-linejoin:miter;stroke-miterlimit:4;stroke-dasharray:none;stroke-dashoffset:0;stroke-opacity:1;filter:url(#filter4405);stop-color:#000000"
             id="rect13461"
             width="53.473263"
             height="149.54938"
             x="36.808178"
             y="69.777313" />
          <g
             id="g13479">
            <rect
               style="font-variation-settings:normal;mix-blend-mode:normal;vector-effect:none;fill:#4d4d4d;fill-opacity:1;fill-rule:evenodd;stroke-width:1.00433;stroke-linecap:butt;stroke-linejoin:miter;stroke-miterlimit:4;stroke-dasharray:none;stroke-dashoffset:0;stroke-opacity:1;stop-color:#000000"
               id="rect13463"
               width="33.633736"
               height="10"
               x="46.565479"
               y="113.75728"
               inkscape:transform-center-x="-0.012129028"
               inkscape:transform-center-y="0.70925526" />
            <rect
               style="font-variation-settings:normal;mix-blend-mode:normal;vector-effect:none;fill:#4d4d4d;fill-opacity:1;fill-rule:evenodd;stroke-width:1.00433;stroke-linecap:butt;stroke-linejoin:miter;stroke-miterlimit:4;stroke-dasharray:none;stroke-dashoffset:0;stroke-opacity:1;stop-color:#000000"
               id="rect13465"
               width="33.633736"
               height="10"
               x="46.727943"
               y="128.47084" />
            <rect
               style="font-variation-settings:normal;mix-blend-mode:normal;vector-effect:none;fill:#4d4d4d;fill-opacity:1;fill-rule:evenodd;stroke-width:1.00465;stroke-linecap:butt;stroke-linejoin:miter;stroke-miterlimit:4;stroke-dasharray:none;stroke-dashoffset:0;stroke-opacity:1;stop-color:#000000"
               id="rect13467"
               width="33.633736"
               height="10.00629"
               x="46.727943"
               y="142.94168" />
            <rect
               style="font-variation-settings:normal;mix-blend-mode:normal;vector-effect:none;fill:#4d4d4d;fill-opacity:1;fill-rule:evenodd;stroke-width:1.00433;stroke-linecap:butt;stroke-linejoin:miter;stroke-miterlimit:4;stroke-dasharray:none;stroke-dashoffset:0;stroke-opacity:1;stop-color:#000000"
               id="rect13469"
               width="33.633736"
               height="10"
               x="46.727943"
               y="157.41252" />
            <rect
               style="font-variation-settings:normal;mix-blend-mode:normal;vector-effect:none;fill:#4d4d4d;fill-opacity:1;fill-rule:evenodd;stroke-width:1.00433;stroke-linecap:butt;stroke-linejoin:miter;stroke-miterlimit:4;stroke-dasharray:none;stroke-dashoffset:0;stroke-opacity:1;stop-color:#000000"
               id="rect13471"
               width="33.633736"
               height="10"
               x="46.727943"
               y="171.82552" />
            <rect
               style="font-variation-settings:normal;mix-blend-mode:normal;vector-effect:none;fill:#4d4d4d;fill-opacity:1;fill-rule:evenodd;stroke-width:1.00465;stroke-linecap:butt;stroke-linejoin:miter;stroke-miterlimit:4;stroke-dasharray:none;stroke-dashoffset:0;stroke-opacity:1;stop-color:#000000"
               id="rect13473"
               width="33.633736"
               height="10.00629"
               x="46.727943"
               y="184.82036" />
            <rect
               style="font-variation-settings:normal;mix-blend-mode:normal;vector-effect:none;fill:#4d4d4d;fill-opacity:1;fill-rule:evenodd;stroke-width:1.00433;stroke-linecap:butt;stroke-linejoin:miter;stroke-miterlimit:4;stroke-dasharray:none;stroke-dashoffset:0;stroke-opacity:1;stop-color:#000000"
               id="rect13475"
               width="33.633736"
               height="10"
               x="46.727943"
               y="86.087151"
               inkscape:transform-center-x="-0.012129028"
               inkscape:transform-center-y="0.70925526" />
            <rect
               style="font-variation-settings:normal;mix-blend-mode:normal;vector-effect:none;fill:#4d4d4d;fill-opacity:1;fill-rule:evenodd;stroke-width:1.00434;stroke-linecap:butt;stroke-linejoin:miter;stroke-miterlimit:4;stroke-dasharray:none;stroke-dashoffset:0;stroke-opacity:1;stop-color:#000000"
               id="rect13477"
               width="33.633736"
               height="10"
               x="46.727943"
               y="100" />
          </g>
        </g>
      </g>
      <g
         id="g1070"
         transform="translate(-12.206654,18.285236)">
        <path
           id="path2138"
           style="font-variation-settings:normal;vector-effect:none;fill:#e6e6e6;fill-opacity:1;fill-rule:evenodd;stroke-width:0.241092;stroke-linecap:butt;stroke-linejoin:miter;stroke-miterlimit:4;stroke-dasharray:none;stroke-dashoffset:0;stroke-opacity:1;stop-color:#000000"
           d="M 73.659431,46.998218 V 154.16999 H 143.38697 V 46.998218 h -26.41286 a 9.7926836,8.5748301 0 0 1 -8.60103,4.475519 9.7926836,8.5748301 0 0 1 -8.601031,-4.475519 z" />
        <rect
           style="font-variation-settings:normal;vector-effect:none;fill:#999999;fill-opacity:1;fill-rule:evenodd;stroke-width:0.300607;stroke-linecap:butt;stroke-linejoin:miter;stroke-miterlimit:4;stroke-dasharray:none;stroke-dashoffset:0;stroke-opacity:1;stop-color:#000000"
           id="rect3470"
           width="4.6815958"
           height="5.8026271"
           x="143.28584"
           y="55.768051" />
        <rect
           style="font-variation-settings:normal;vector-effect:none;fill:#999999;fill-opacity:1;fill-rule:evenodd;stroke-width:0.253264;stroke-linecap:butt;stroke-linejoin:miter;stroke-miterlimit:4;stroke-dasharray:none;stroke-dashoffset:0;stroke-opacity:1;stop-color:#000000"
           id="rect3472"
           width="4.681694"
           height="8.4263105"
           x="143.28575"
           y="67.651199" />
        <rect
           style="font-variation-settings:normal;vector-effect:none;fill:#999999;fill-opacity:1;fill-rule:evenodd;stroke-width:0.320703;stroke-linecap:butt;stroke-linejoin:miter;stroke-miterlimit:4;stroke-dasharray:none;stroke-dashoffset:0;stroke-opacity:1;stop-color:#000000"
           id="rect3474"
           width="4.6815958"
           height="8.4265757"
           x="143.28584"
           y="82.155731" />
        <rect
           style="font-variation-settings:normal;vector-effect:none;fill:#999999;fill-opacity:1;fill-rule:evenodd;stroke-width:0.27638;stroke-linecap:butt;stroke-linejoin:miter;stroke-miterlimit:4;stroke-dasharray:none;stroke-dashoffset:0;stroke-opacity:1;stop-color:#000000"
           id="rect3513"
           width="4.6815958"
           height="8.4265757"
           x="143.28584"
           y="96.661606" />
        <rect
           style="font-variation-settings:normal;vector-effect:none;fill:#999999;fill-opacity:1;fill-rule:evenodd;stroke-width:0.282206;stroke-linecap:butt;stroke-linejoin:miter;stroke-miterlimit:4;stroke-dasharray:none;stroke-dashoffset:0;stroke-opacity:1;stop-color:#000000"
           id="rect3515"
           width="4.6815958"
           height="8.4265757"
           x="143.28584"
           y="111.16747" />
        <rect
           style="font-variation-settings:normal;vector-effect:none;fill:#999999;fill-opacity:1;fill-rule:evenodd;stroke-width:0.17939;stroke-linecap:butt;stroke-linejoin:miter;stroke-miterlimit:4;stroke-dasharray:none;stroke-dashoffset:0;stroke-opacity:1;stop-color:#000000"
           id="rect3519"
           width="4.6815958"
           height="8.4265757"
           x="143.28584"
           y="125.67333" />
        <rect
           style="font-variation-settings:normal;vector-effect:none;fill:#999999;fill-opacity:1;fill-rule:evenodd;stroke-width:0.229904;stroke-linecap:butt;stroke-linejoin:miter;stroke-miterlimit:4;stroke-dasharray:none;stroke-dashoffset:0;stroke-opacity:1;stop-color:#000000"
           id="rect3526"
           width="4.6815958"
           height="5.8029394"
           x="143.28584"
           y="140.1792" />
        <rect
           style="font-variation-settings:normal;vector-effect:none;fill:#999999;fill-opacity:1;fill-rule:evenodd;stroke-width:0.300607;stroke-linecap:butt;stroke-linejoin:miter;stroke-miterlimit:4;stroke-dasharray:none;stroke-dashoffset:0;stroke-opacity:1;stop-color:#000000"
           id="rect3528"
           width="4.6815958"
           height="5.8026271"
           x="68.877487"
           y="55.768051" />
        <rect
           style="font-variation-settings:normal;vector-effect:none;fill:#999999;fill-opacity:1;fill-rule:evenodd;stroke-width:0.253264;stroke-linecap:butt;stroke-linejoin:miter;stroke-miterlimit:4;stroke-dasharray:none;stroke-dashoffset:0;stroke-opacity:1;stop-color:#000000"
           id="rect3530"
           width="4.681694"
           height="8.4263105"
           x="68.877487"
           y="111.16728" />
        <rect
           style="font-variation-settings:normal;vector-effect:none;fill:#999999;fill-opacity:1;fill-rule:evenodd;stroke-width:0.253264;stroke-linecap:butt;stroke-linejoin:miter;stroke-miterlimit:4;stroke-dasharray:none;stroke-dashoffset:0;stroke-opacity:1;stop-color:#000000"
           id="rect3532"
           width="4.681694"
           height="8.4263105"
           x="68.877487"
           y="96.661552"
           inkscape:transform-center-x="-5.5637324"
           inkscape:transform-center-y="3.3567833" />
        <rect
           style="font-variation-settings:normal;vector-effect:none;fill:#999999;fill-opacity:1;fill-rule:evenodd;stroke-width:0.253264;stroke-linecap:butt;stroke-linejoin:miter;stroke-miterlimit:4;stroke-dasharray:none;stroke-dashoffset:0;stroke-opacity:1;stop-color:#000000"
           id="rect3534"
           width="4.681694"
           height="8.4263105"
           x="68.877487"
           y="82.155823" />
        <rect
           style="font-variation-settings:normal;vector-effect:none;fill:#999999;fill-opacity:1;fill-rule:evenodd;stroke-width:0.253264;stroke-linecap:butt;stroke-linejoin:miter;stroke-miterlimit:4;stroke-dasharray:none;stroke-dashoffset:0;stroke-opacity:1;stop-color:#000000"
           id="rect3536"
           width="4.681694"
           height="8.4263105"
           x="68.877487"
           y="67.650856" />
        <rect
           style="font-variation-settings:normal;vector-effect:none;fill:#999999;fill-opacity:1;fill-rule:evenodd;stroke-width:0.253264;stroke-linecap:butt;stroke-linejoin:miter;stroke-miterlimit:4;stroke-dasharray:none;stroke-dashoffset:0;stroke-opacity:1;stop-color:#000000"
           id="rect3538"
           width="4.681694"
           height="8.4263105"
           x="68.877487"
           y="125.67301" />
        <rect
           style="font-variation-settings:normal;vector-effect:none;fill:#999999;fill-opacity:1;fill-rule:evenodd;stroke-width:0.210174;stroke-linecap:butt;stroke-linejoin:miter;stroke-miterlimit:4;stroke-dasharray:none;stroke-dashoffset:0;stroke-opacity:1;stop-color:#000000"
           id="rect3540"
           width="4.681694"
           height="5.8029394"
           x="68.877487"
           y="140.17874" />
        <path
           id="path2162"
           style="font-variation-settings:normal;vector-effect:none;fill:#1a1a1a;fill-opacity:1;fill-rule:evenodd;stroke-width:0.914328;stroke-linecap:butt;stroke-linejoin:miter;stroke-miterlimit:4;stroke-dasharray:none;stroke-dashoffset:0;stroke-opacity:1;filter:url(#filter2329);stop-color:#000000"
           d="m 254.53711,183.54297 v 399.83398 h 43.03125 l -20.76172,-17.42187 7.66797,-40.33203 21.37695,-50.12305 -41.97461,-25.72461 12.6836,-31.44727 -19.65821,-57.71874 42.31055,-36.6211 -31.00391,-34.96289 0.56055,-62.60547 78.31641,-19.07031 36.8164,17.57617 26.64258,-8.07812 42.97461,5.99609 50.23242,37.64648 -38.32226,40.89063 30.90625,52.91406 -25.99219,70.6543 33.73047,65.09961 V 183.54297 h -85.82813 a 37.011718,32.630858 0 0 1 -32.50781,17.03125 37.011718,32.630858 0 0 1 -26.61133,-9.95508 37.011718,32.630858 0 0 1 -12.94726,-7.07617 z m 249.53711,346.5957 -14.07617,49.10938 -31.00586,4.1289 h 45.08203 z m -143.14844,39.88477 -51.58789,13.35351 h 103.03125 z"
           transform="matrix(0.26458333,0,0,0.26133805,8.0645141,0.66603737)" />
        <text
           xml:space="preserve"
           style="font-style:normal;font-variant:normal;font-weight:normal;font-stretch:normal;font-size:12.2591px;line-height:1.55;font-family:'times new roman';-inkscape-font-specification:'times new roman, ';fill:#000000;fill-opacity:1;stroke:none;stroke-width:0.306478"
           x="-117.10243"
           y="116.57614"
           id="text5313"
           transform="matrix(0,-1.0340645,0.96705766,0,0,0)"><tspan
             sodipodi:role="line"
             id="tspan5311"
             x="-117.10243"
             y="116.57614"
             style="font-style:normal;font-variant:normal;font-weight:normal;font-stretch:normal;font-family:'times new roman';-inkscape-font-specification:'times new roman, ';stroke-width:0.306478">IC 7408</tspan></text>
        <g
           id="g17377">
          <g
             id="g17357"
             style="filter:url(#filter17363)"
             transform="translate(0.52916663,0.52916667)">
            <path
               style="fill:none;stroke:#000000;stroke-width:0.265;stroke-linecap:butt;stroke-linejoin:miter;stroke-miterlimit:4;stroke-dasharray:none;stroke-opacity:1"
               d="m 73.559181,71.692683 h 10.245473 v -8.083654 h 7.537329 v 2.826159"
               id="path17349" />
            <path
               style="fill:none;stroke:#000000;stroke-width:0.265;stroke-linecap:butt;stroke-linejoin:miter;stroke-miterlimit:4;stroke-dasharray:none;stroke-opacity:1"
               d="m 73.559507,58.801331 h 23.270947 v 6.429663"
               id="path17351" />
            <path
               style="fill:none;stroke:#000000;stroke-width:0.265;stroke-linecap:butt;stroke-linejoin:miter;stroke-miterlimit:4;stroke-dasharray:none;stroke-opacity:1"
               d="m 73.561759,86.957528 h 20.419149 v -8.26438"
               id="path17353" />
            <path
               id="path17355"
               style="fill:#97eeff;fill-opacity:1;fill-rule:evenodd;stroke:#000000;stroke-width:0.355;stroke-miterlimit:4;stroke-dasharray:none;stroke-opacity:0.931801"
               d="m 99.803271,65.42538 -11.10033,-0.01662 -0.0074,6.499909 8.41e-4,-3e-6 a 5.5495952,6.5500664 0.01428193 0 0 -4.96e-4,0.05088 5.5495952,6.5500664 0.01428193 0 0 5.542082,6.558371 5.5495952,6.5500664 0.01428193 0 0 5.557103,-6.541735 5.5495952,6.5500664 0.01428193 0 0 -2.6e-4,-0.05085 l 8.9e-4,10e-7 z" />
          </g>
          <g
             id="g17347">
            <path
               style="fill:none;stroke:#000000;stroke-width:0.265;stroke-linecap:butt;stroke-linejoin:miter;stroke-miterlimit:4;stroke-dasharray:none;stroke-opacity:1"
               d="m 73.559181,71.692683 h 10.245473 v -8.083654 h 7.537329 v 2.826159"
               id="path2199" />
            <path
               style="fill:none;stroke:#000000;stroke-width:0.265;stroke-linecap:butt;stroke-linejoin:miter;stroke-miterlimit:4;stroke-dasharray:none;stroke-opacity:1"
               d="m 73.559507,58.801331 h 23.270947 v 6.429663"
               id="path2195" />
            <path
               style="fill:none;stroke:#000000;stroke-width:0.265;stroke-linecap:butt;stroke-linejoin:miter;stroke-miterlimit:4;stroke-dasharray:none;stroke-opacity:1"
               d="m 73.561759,86.957528 h 20.419149 v -8.26438"
               id="path2203" />
            <path
               id="path3744"
               style="fill:#97eeff;fill-opacity:1;fill-rule:evenodd;stroke:#000000;stroke-width:0.355;stroke-miterlimit:4;stroke-dasharray:none;stroke-opacity:0.931801"
               d="m 99.803271,65.42538 -11.10033,-0.01662 -0.0074,6.499909 8.41e-4,-3e-6 a 5.5495952,6.5500664 0.01428193 0 0 -4.96e-4,0.05088 5.5495952,6.5500664 0.01428193 0 0 5.542082,6.558371 5.5495952,6.5500664 0.01428193 0 0 5.557103,-6.541735 5.5495952,6.5500664 0.01428193 0 0 -2.6e-4,-0.05085 l 8.9e-4,10e-7 z" />
          </g>
        </g>
        <g
           id="g17399"
           transform="translate(1.3352729,41.971841)">
          <g
             id="g17387"
             style="filter:url(#filter17363)"
             transform="translate(0.52916663,0.52916667)">
            <path
               style="fill:none;stroke:#000000;stroke-width:0.265;stroke-linecap:butt;stroke-linejoin:miter;stroke-miterlimit:4;stroke-dasharray:none;stroke-opacity:1"
               d="m 73.559181,71.692683 h 10.245473 v -8.083654 h 7.537329 v 2.826159"
               id="path17379" />
            <path
               style="fill:none;stroke:#000000;stroke-width:0.265;stroke-linecap:butt;stroke-linejoin:miter;stroke-miterlimit:4;stroke-dasharray:none;stroke-opacity:1"
               d="m 73.559507,58.801331 h 23.270947 v 6.429663"
               id="path17381" />
            <path
               style="fill:none;stroke:#000000;stroke-width:0.265;stroke-linecap:butt;stroke-linejoin:miter;stroke-miterlimit:4;stroke-dasharray:none;stroke-opacity:1"
               d="m 73.561759,86.957528 h 20.419149 v -8.26438"
               id="path17383" />
            <path
               id="path17385"
               style="fill:#97eeff;fill-opacity:1;fill-rule:evenodd;stroke:#000000;stroke-width:0.355;stroke-miterlimit:4;stroke-dasharray:none;stroke-opacity:0.931801"
               d="m 99.803271,65.42538 -11.10033,-0.01662 -0.0074,6.499909 8.41e-4,-3e-6 a 5.5495952,6.5500664 0.01428193 0 0 -4.96e-4,0.05088 5.5495952,6.5500664 0.01428193 0 0 5.542082,6.558371 5.5495952,6.5500664 0.01428193 0 0 5.557103,-6.541735 5.5495952,6.5500664 0.01428193 0 0 -2.6e-4,-0.05085 l 8.9e-4,10e-7 z" />
          </g>
          <g
             id="g17397">
            <path
               style="fill:none;stroke:#000000;stroke-width:0.265;stroke-linecap:butt;stroke-linejoin:miter;stroke-miterlimit:4;stroke-dasharray:none;stroke-opacity:1"
               d="m 73.559181,71.692683 h 10.245473 v -8.083654 h 7.537329 v 2.826159"
               id="path17389" />
            <path
               style="fill:none;stroke:#000000;stroke-width:0.265;stroke-linecap:butt;stroke-linejoin:miter;stroke-miterlimit:4;stroke-dasharray:none;stroke-opacity:1"
               d="m 73.559507,58.801331 h 23.270947 v 6.429663"
               id="path17391" />
            <path
               style="fill:none;stroke:#000000;stroke-width:0.265;stroke-linecap:butt;stroke-linejoin:miter;stroke-miterlimit:4;stroke-dasharray:none;stroke-opacity:1"
               d="m 73.561759,86.957528 h 20.419149 v -8.26438"
               id="path17393" />
            <path
               id="path17395"
               style="fill:#97eeff;fill-opacity:1;fill-rule:evenodd;stroke:#000000;stroke-width:0.355;stroke-miterlimit:4;stroke-dasharray:none;stroke-opacity:0.931801"
               d="m 99.803271,65.42538 -11.10033,-0.01662 -0.0074,6.499909 8.41e-4,-3e-6 a 5.5495952,6.5500664 0.01428193 0 0 -4.96e-4,0.05088 5.5495952,6.5500664 0.01428193 0 0 5.542082,6.558371 5.5495952,6.5500664 0.01428193 0 0 5.557103,-6.541735 5.5495952,6.5500664 0.01428193 0 0 -2.6e-4,-0.05085 l 8.9e-4,10e-7 z" />
          </g>
        </g>
        <path
           id="rect1532"
           style="font-variation-settings:normal;vector-effect:none;fill:#000000;fill-opacity:1;fill-rule:evenodd;stroke-width:0.240428;stroke-linecap:butt;stroke-linejoin:miter;stroke-miterlimit:4;stroke-dasharray:none;stroke-dashoffset:0;stroke-opacity:1;stop-color:#000000"
           d="M 73.558704,47.587446 V 154.16999 H 143.28624 V 47.587446 h -26.41286 a 9.7926836,8.5276849 0 0 1 -8.60103,4.450913 9.7926836,8.5276849 0 0 1 -8.601029,-4.450913 z m 24.486877,6.221581 9.741009,4.593321 7.04919,-2.11112 11.37036,1.567007 13.29066,9.838458 -10.13943,10.686277 8.17728,13.828457 -6.8771,18.464653 10.88202,20.74473 -5.68182,19.57943 -16.35663,2.15144 -17.79374,-4.56219 -16.029003,4.09821 -6.227527,-5.16142 2.028817,-10.5403 5.655985,-13.09905 -11.105782,-6.72283 3.355869,-8.21836 -5.201235,-15.084104 11.194666,-9.570487 -8.203118,-9.137133 0.148313,-16.361192 z" />
        <g
           id="g17421"
           transform="matrix(-1,0,0,1,215.0485,47.224827)">
          <g
             id="g17409"
             style="filter:url(#filter17363)"
             transform="translate(0.52916663,0.52916667)">
            <path
               style="fill:none;stroke:#000000;stroke-width:0.265;stroke-linecap:butt;stroke-linejoin:miter;stroke-miterlimit:4;stroke-dasharray:none;stroke-opacity:1"
               d="m 73.559181,71.692683 h 10.245473 v -8.083654 h 7.537329 v 2.826159"
               id="path17401" />
            <path
               style="fill:none;stroke:#000000;stroke-width:0.265;stroke-linecap:butt;stroke-linejoin:miter;stroke-miterlimit:4;stroke-dasharray:none;stroke-opacity:1"
               d="m 73.559507,58.801331 h 23.270947 v 6.429663"
               id="path17403" />
            <path
               style="fill:none;stroke:#000000;stroke-width:0.265;stroke-linecap:butt;stroke-linejoin:miter;stroke-miterlimit:4;stroke-dasharray:none;stroke-opacity:1"
               d="m 73.561759,86.957528 h 20.419149 v -8.26438"
               id="path17405" />
            <path
               id="path17407"
               style="fill:#97eeff;fill-opacity:1;fill-rule:evenodd;stroke:#000000;stroke-width:0.355;stroke-miterlimit:4;stroke-dasharray:none;stroke-opacity:0.931801"
               d="m 99.803271,65.42538 -11.10033,-0.01662 -0.0074,6.499909 8.41e-4,-3e-6 a 5.5495952,6.5500664 0.01428193 0 0 -4.96e-4,0.05088 5.5495952,6.5500664 0.01428193 0 0 5.542082,6.558371 5.5495952,6.5500664 0.01428193 0 0 5.557103,-6.541735 5.5495952,6.5500664 0.01428193 0 0 -2.6e-4,-0.05085 l 8.9e-4,10e-7 z" />
          </g>
          <g
             id="g17419">
            <path
               style="fill:none;stroke:#000000;stroke-width:0.265;stroke-linecap:butt;stroke-linejoin:miter;stroke-miterlimit:4;stroke-dasharray:none;stroke-opacity:1"
               d="m 73.559181,71.692683 h 10.245473 v -8.083654 h 7.537329 v 2.826159"
               id="path17411" />
            <path
               style="fill:none;stroke:#000000;stroke-width:0.265;stroke-linecap:butt;stroke-linejoin:miter;stroke-miterlimit:4;stroke-dasharray:none;stroke-opacity:1"
               d="m 73.559507,58.801331 h 23.270947 v 6.429663"
               id="path17413" />
            <path
               style="fill:none;stroke:#000000;stroke-width:0.265;stroke-linecap:butt;stroke-linejoin:miter;stroke-miterlimit:4;stroke-dasharray:none;stroke-opacity:1"
               d="m 73.561759,86.957528 h 20.419149 v -8.26438"
               id="path17415" />
            <path
               id="path17417"
               style="fill:#97eeff;fill-opacity:1;fill-rule:evenodd;stroke:#000000;stroke-width:0.355;stroke-miterlimit:4;stroke-dasharray:none;stroke-opacity:0.931801"
               d="m 99.803271,65.42538 -11.10033,-0.01662 -0.0074,6.499909 8.41e-4,-3e-6 a 5.5495952,6.5500664 0.01428193 0 0 -4.96e-4,0.05088 5.5495952,6.5500664 0.01428193 0 0 5.542082,6.558371 5.5495952,6.5500664 0.01428193 0 0 5.557103,-6.541735 5.5495952,6.5500664 0.01428193 0 0 -2.6e-4,-0.05085 l 8.9e-4,10e-7 z" />
          </g>
        </g>
        <g
           id="g17443"
           transform="matrix(-1,0,0,1,215.50975,12.960423)">
          <g
             id="g17431"
             style="filter:url(#filter17363)"
             transform="translate(0.52916663,0.52916667)">
            <path
               style="fill:none;stroke:#000000;stroke-width:0.265;stroke-linecap:butt;stroke-linejoin:miter;stroke-miterlimit:4;stroke-dasharray:none;stroke-opacity:1"
               d="m 73.559181,71.692683 h 10.245473 v -8.083654 h 7.537329 v 2.826159"
               id="path17423" />
            <path
               style="fill:none;stroke:#000000;stroke-width:0.265;stroke-linecap:butt;stroke-linejoin:miter;stroke-miterlimit:4;stroke-dasharray:none;stroke-opacity:1"
               d="m 73.559507,58.801331 h 23.270947 v 6.429663"
               id="path17425" />
            <path
               style="fill:none;stroke:#000000;stroke-width:0.265;stroke-linecap:butt;stroke-linejoin:miter;stroke-miterlimit:4;stroke-dasharray:none;stroke-opacity:1"
               d="m 73.561759,86.957528 h 20.419149 v -8.26438"
               id="path17427" />
            <path
               id="path17429"
               style="fill:#97eeff;fill-opacity:1;fill-rule:evenodd;stroke:#000000;stroke-width:0.355;stroke-miterlimit:4;stroke-dasharray:none;stroke-opacity:0.931801"
               d="m 99.803271,65.42538 -11.10033,-0.01662 -0.0074,6.499909 8.41e-4,-3e-6 a 5.5495952,6.5500664 0.01428193 0 0 -4.96e-4,0.05088 5.5495952,6.5500664 0.01428193 0 0 5.542082,6.558371 5.5495952,6.5500664 0.01428193 0 0 5.557103,-6.541735 5.5495952,6.5500664 0.01428193 0 0 -2.6e-4,-0.05085 l 8.9e-4,10e-7 z" />
          </g>
          <g
             id="g17441">
            <path
               style="fill:none;stroke:#000000;stroke-width:0.265;stroke-linecap:butt;stroke-linejoin:miter;stroke-miterlimit:4;stroke-dasharray:none;stroke-opacity:1"
               d="m 73.559181,71.692683 h 10.245473 v -8.083654 h 7.537329 v 2.826159"
               id="path17433" />
            <path
               style="fill:none;stroke:#000000;stroke-width:0.265;stroke-linecap:butt;stroke-linejoin:miter;stroke-miterlimit:4;stroke-dasharray:none;stroke-opacity:1"
               d="m 73.559507,58.801331 h 23.270947 v 6.429663"
               id="path17435" />
            <path
               style="fill:none;stroke:#000000;stroke-width:0.265;stroke-linecap:butt;stroke-linejoin:miter;stroke-miterlimit:4;stroke-dasharray:none;stroke-opacity:1"
               d="m 73.561759,86.957528 h 20.419149 v -8.26438"
               id="path17437" />
            <path
               id="path17439"
               style="fill:#97eeff;fill-opacity:1;fill-rule:evenodd;stroke:#000000;stroke-width:0.355;stroke-miterlimit:4;stroke-dasharray:none;stroke-opacity:0.931801"
               d="m 99.803271,65.42538 -11.10033,-0.01662 -0.0074,6.499909 8.41e-4,-3e-6 a 5.5495952,6.5500664 0.01428193 0 0 -4.96e-4,0.05088 5.5495952,6.5500664 0.01428193 0 0 5.542082,6.558371 5.5495952,6.5500664 0.01428193 0 0 5.557103,-6.541735 5.5495952,6.5500664 0.01428193 0 0 -2.6e-4,-0.05085 l 8.9e-4,10e-7 z" />
          </g>
        </g>
        <ellipse
           style="fill:#ffffff;fill-rule:evenodd;stroke:none;stroke-width:0.316525;stroke-linejoin:miter;stroke-miterlimit:4;stroke-dasharray:7.59658, 0.316525;stroke-dashoffset:0;stroke-opacity:0.931801"
           id="path1342"
           cx="79.31221"
           cy="53.234444"
           rx="2.3142846"
           ry="2.2293162" />
      </g>
    </g>
  </g>
</svg>
